<?xml version="1.0" standalone="no"?>
<!DOCTYPE svg PUBLIC "-//W3C//DTD SVG 20010904//EN"
 "http://www.w3.org/TR/2001/REC-SVG-20010904/DTD/svg10.dtd">
<svg version="1.0" xmlns="http://www.w3.org/2000/svg"
 width="120.000000pt" height="120.000000pt" viewBox="0 0 120.000000 120.000000"
 preserveAspectRatio="xMidYMid meet">

<g transform="translate(0.000000,120.000000) scale(0.100000,-0.100000)"
fill="#000000" stroke="none">
<path d="M690 1137 c0 -12 34 -82 48 -99 19 -23 9 -34 -36 -42 -22 -3 -46 -13
-53 -22 -13 -16 -11 -16 26 -9 64 13 90 12 90 -5 0 -9 -11 -16 -30 -18 -37 -3
-85 -22 -85 -32 0 -20 33 -32 70 -27 93 12 168 -74 158 -181 -7 -74 -95 -248
-121 -239 -6 2 -26 -7 -44 -19 -18 -12 -56 -25 -83 -29 -63 -9 -75 -1 -178
106 -84 89 -123 148 -127 194 -17 184 -14 233 21 353 l7 24 -44 -23 c-100 -51
-213 -203 -215 -289 0 -25 -9 -84 -19 -131 -14 -64 -16 -93 -9 -110 9 -19 11
-13 11 36 0 33 6 71 12 85 9 20 10 6 8 -72 -1 -53 1 -100 6 -104 4 -4 7 -20 7
-35 0 -37 17 -79 42 -106 20 -22 22 -22 40 -6 17 15 20 15 28 3 15 -24 12 -40
-16 -65 -22 -21 -24 -26 -12 -45 18 -30 124 -109 178 -133 138 -62 315 -64
450 -4 51 22 69 39 74 71 3 16 12 36 21 46 8 9 15 24 15 33 0 8 11 24 25 35
14 11 25 25 25 31 0 5 9 15 19 21 29 15 39 12 16 -6 -21 -17 -18 -16 25 3 14
6 32 14 41 16 10 3 26 33 38 68 26 78 26 79 -3 79 -14 0 -27 4 -30 9 -7 11 20
22 38 15 29 -11 25 16 -4 31 -36 19 -70 50 -70 65 0 7 6 7 19 0 28 -14 34 -13
27 7 -4 9 -1 20 5 24 9 5 6 18 -9 48 -13 24 -17 41 -11 41 8 0 8 4 1 13 -6 7
-14 41 -18 77 -13 123 -78 205 -219 275 -64 31 -155 56 -155 42z m405 -607 c3
-5 -1 -10 -9 -10 -8 0 -18 5 -21 10 -3 6 1 10 9 10 8 0 18 -4 21 -10z m-935
-149 c0 -34 -16 -15 -24 29 -7 33 -6 34 9 16 8 -11 15 -31 15 -45z"/>
<path d="M404 961 c-38 -9 -54 -19 -54 -32 0 -5 11 -2 25 7 20 13 39 15 81 11
40 -4 54 -2 51 6 -4 14 -60 18 -103 8z"/>
<path d="M387 894 c-44 -24 -28 -39 41 -39 64 0 89 13 79 39 -8 21 -82 21
-120 0z"/>
<path d="M486 733 c-6 -14 -5 -15 5 -6 7 7 10 15 7 18 -3 3 -9 -2 -12 -12z"/>
<path d="M635 710 c-3 -5 1 -10 10 -10 9 0 13 5 10 10 -3 6 -8 10 -10 10 -2 0
-7 -4 -10 -10z"/>
<path d="M530 700 c0 -5 7 -10 15 -10 8 0 15 5 15 10 0 6 -7 10 -15 10 -8 0
-15 -4 -15 -10z"/>
<path d="M430 665 c-7 -8 -8 -15 -2 -15 5 0 15 7 22 15 7 8 8 15 2 15 -5 0
-15 -7 -22 -15z"/>
<path d="M670 658 c-19 -5 -68 -9 -108 -8 -40 0 -77 -2 -82 -5 -13 -8 19 -41
53 -54 30 -12 36 -5 10 14 -23 17 -8 35 25 28 15 -2 51 1 80 8 57 13 72 8 51
-18 -12 -15 -12 -16 1 -8 73 41 55 67 -30 43z"/>
</g>
</svg>
