<?xml version="1.0" encoding="UTF-8"?>
<svg version="1.1" xmlns="http://www.w3.org/2000/svg" width="120" height="120">
<path d="M0 0 C0.92554687 0.40089844 1.85109375 0.80179687 2.8046875 1.21484375 C17.60901998 8.44925552 28.59335643 21.49753858 34 37 C38.09115879 50.61750325 37.78689342 66.97495461 32 80 C31.59910156 80.92554687 31.19820313 81.85109375 30.78515625 82.8046875 C23.55074448 97.60901998 10.50246142 108.59335643 -5 114 C-18.61750325 118.09115879 -34.97495461 117.78689342 -48 112 C-48.92554688 111.59910156 -49.85109375 111.19820313 -50.8046875 110.78515625 C-65.60901998 103.55074448 -76.59335643 90.50246142 -82 75 C-86.09115879 61.38249675 -85.78689342 45.02504539 -80 32 C-79.59910156 31.07445312 -79.19820313 30.14890625 -78.78515625 29.1953125 C-71.55074448 14.39098002 -58.50246142 3.40664357 -43 -2 C-29.38249675 -6.09115879 -13.02504539 -5.78689342 0 0 Z " fill="#1C1B22" transform="translate(84,4)"/>
<path d="M0 0 C0.92554687 0.40089844 1.85109375 0.80179687 2.8046875 1.21484375 C17.60901998 8.44925552 28.59335643 21.49753858 34 37 C38.09115879 50.61750325 37.78689342 66.97495461 32 80 C31.59910156 80.92554687 31.19820313 81.85109375 30.78515625 82.8046875 C23.55074448 97.60901998 10.50246142 108.59335643 -5 114 C-18.61750325 118.09115879 -34.97495461 117.78689342 -48 112 C-48.92554688 111.59910156 -49.85109375 111.19820313 -50.8046875 110.78515625 C-65.60901998 103.55074448 -76.59335643 90.50246142 -82 75 C-86.09115879 61.38249675 -85.78689342 45.02504539 -80 32 C-79.59910156 31.07445312 -79.19820313 30.14890625 -78.78515625 29.1953125 C-71.55074448 14.39098002 -58.50246142 3.40664357 -43 -2 C-29.38249675 -6.09115879 -13.02504539 -5.78689342 0 0 Z M-14 2 C-13.71125 2.721875 -13.4225 3.44375 -13.125 4.1875 C-12.08333333 6.79166667 -11.04166667 9.39583333 -10 12 C-9.34 12 -8.68 12 -8 12 C-7.505 16.95 -7.505 16.95 -7 22 C-8.258125 21.938125 -9.51625 21.87625 -10.8125 21.8125 C-14.13173028 21.78540188 -14.13173028 21.78540188 -17 23.375 C-18.17469914 24.96587907 -18.17469914 24.96587907 -18 27 C-16.44539063 27.02126953 -16.44539063 27.02126953 -14.859375 27.04296875 C-13.48953943 27.08988093 -12.11974913 27.13812827 -10.75 27.1875 C-10.06808594 27.19330078 -9.38617188 27.19910156 -8.68359375 27.20507812 C-4.8845356 27.37105639 -3.30315464 27.69635641 -0.578125 30.42578125 C1 33 1 33 2 35 C2.66 35 3.32 35 4 35 C3.96261231 48.17916181 1.64108225 61.67448049 -8.01953125 71.484375 C-13.92051046 76.00031175 -20.73208145 77.46163566 -28 78 C-29.51497731 76.07184706 -30.86272711 74.3039614 -31.875 72.0625 C-33.45392592 69.16780248 -35.61686967 67.27721343 -38 65 C-41.97189462 61.20269416 -45.23965079 57.79429074 -48 53 C-48.66 53 -49.32 53 -50 53 C-50.12375 52.401875 -50.2475 51.80375 -50.375 51.1875 C-50.95475985 48.73768652 -50.95475985 48.73768652 -53 46 C-53.24291992 43.66259766 -53.24291992 43.66259766 -53.23046875 40.9140625 C-53.22917969 39.90601563 -53.22789063 38.89796875 -53.2265625 37.859375 C-53.20722656 36.25835937 -53.20722656 36.25835937 -53.1875 34.625 C-53.18105469 33.54476562 -53.17460938 32.46453125 -53.16796875 31.3515625 C-53.09597848 23.8645746 -52.81452377 16.44707449 -52 9 C-61.27819538 12.15888648 -68.5642841 20.45860658 -73 29 C-78.05676734 40.41895015 -81.40730666 52.76689671 -78.125 65.25 C-77.30181461 68.12346961 -77.30181461 68.12346961 -75 69 C-74.54296875 70.85546875 -74.54296875 70.85546875 -74.1875 73.1875 C-73.17158126 78.1095869 -71.82857053 80.69350727 -68 84 C-64.74210981 84.02827577 -64.74210981 84.02827577 -62 83 C-62.3125 84.875 -62.3125 84.875 -63 87 C-64.485 87.99 -64.485 87.99 -66 89 C-65.62403791 91.78211944 -65.32681541 93.5879284 -63.5625 95.8125 C-62.06170257 97.20169442 -62.06170257 97.20169442 -60 97 C-60 97.66 -60 98.32 -60 99 C-45.86660996 109.53165516 -31.46446432 112.90170828 -14 111 C-7.97131165 109.90998328 -0.94645746 108.62564687 2.8359375 103.5234375 C4.09458031 100.93634732 4.09458031 100.93634732 5 97.8125 C6 95 6 95 9 93 C9.0825 92.2575 9.165 91.515 9.25 90.75 C10.42336698 86.44765442 13.1972826 84.19899312 17 82 C20.01495351 81.26417933 22.90152711 81.01405203 26 81 C26.67260351 79.23141309 27.33788395 77.46003984 28 75.6875 C28.556875 74.20830078 28.556875 74.20830078 29.125 72.69921875 C30.15418502 69.99728344 30.15418502 69.99728344 30 67 C29.34 67 28.68 67 28 67 C28 66.34 28 65.68 28 65 C28.99 65 29.98 65 31 65 C31 63.68 31 62.36 31 61 C29.824375 60.566875 29.824375 60.566875 28.625 60.125 C26 59 26 59 24 57 C23.01 57 22.02 57 21 57 C21.495 56.01 21.495 56.01 22 55 C23.65 55.66 25.3 56.32 27 57 C28.0494188 53.85174359 27.98655124 53.01298497 27.1875 49.9375 C26.93033203 48.89916016 26.93033203 48.89916016 26.66796875 47.83984375 C26.06980296 45.78757034 26.06980296 45.78757034 24 44 C24.33 43.01 24.66 42.02 25 41 C24.34 41 23.68 41 23 41 C22.99613281 39.40671875 22.99613281 39.40671875 22.9921875 37.78125 C22.91912986 27.38038918 22.91912986 27.38038918 17.78515625 18.66015625 C17.19605469 18.11230469 16.60695313 17.56445312 16 17 C15.42121094 16.40058594 14.84242187 15.80117188 14.24609375 15.18359375 C7.86829513 9.01883225 -2.74830738 2.27785301 -11.8125 1.875 C-12.534375 1.91625 -13.25625 1.9575 -14 2 Z " fill="#BF8573" transform="translate(84,4)"/>
<path d="M0 0 C0.92554687 0.40089844 1.85109375 0.80179687 2.8046875 1.21484375 C17.60901998 8.44925552 28.59335643 21.49753858 34 37 C38.09115879 50.61750325 37.78689342 66.97495461 32 80 C31.59910156 80.92554687 31.19820313 81.85109375 30.78515625 82.8046875 C23.55074448 97.60901998 10.50246142 108.59335643 -5 114 C-18.61750325 118.09115879 -34.97495461 117.78689342 -48 112 C-48.92554688 111.59910156 -49.85109375 111.19820313 -50.8046875 110.78515625 C-65.60901998 103.55074448 -76.59335643 90.50246142 -82 75 C-86.09115879 61.38249675 -85.78689342 45.02504539 -80 32 C-79.59910156 31.07445312 -79.19820313 30.14890625 -78.78515625 29.1953125 C-71.55074448 14.39098002 -58.50246142 3.40664357 -43 -2 C-29.38249675 -6.09115879 -13.02504539 -5.78689342 0 0 Z M-46 5 C-46.86496094 5.33902344 -47.72992188 5.67804687 -48.62109375 6.02734375 C-61.76248402 11.78823402 -70.5958112 22.65316708 -75.8125 35.6875 C-79.58364353 45.68286101 -81.14447685 57.86905658 -77 68 C-76.34 68.33 -75.68 68.66 -75 69 C-74.54296875 70.85546875 -74.54296875 70.85546875 -74.1875 73.1875 C-73.17158126 78.1095869 -71.82857053 80.69350727 -68 84 C-64.74210981 84.02827577 -64.74210981 84.02827577 -62 83 C-62.3125 84.875 -62.3125 84.875 -63 87 C-64.485 87.99 -64.485 87.99 -66 89 C-65.62403791 91.78211944 -65.32681541 93.5879284 -63.5625 95.8125 C-62.06170257 97.20169442 -62.06170257 97.20169442 -60 97 C-60 97.66 -60 98.32 -60 99 C-45.86660996 109.53165516 -31.46446432 112.90170828 -14 111 C-7.97131165 109.90998328 -0.94645746 108.62564687 2.8359375 103.5234375 C4.09458031 100.93634732 4.09458031 100.93634732 5 97.8125 C6 95 6 95 9 93 C9.0825 92.2575 9.165 91.515 9.25 90.75 C10.42336698 86.44765442 13.1972826 84.19899312 17 82 C20.01495351 81.26417933 22.90152711 81.01405203 26 81 C26.67260351 79.23141309 27.33788395 77.46003984 28 75.6875 C28.556875 74.20830078 28.556875 74.20830078 29.125 72.69921875 C30.15418502 69.99728344 30.15418502 69.99728344 30 67 C29.34 67 28.68 67 28 67 C28 66.34 28 65.68 28 65 C28.99 65 29.98 65 31 65 C31 63.68 31 62.36 31 61 C29.824375 60.566875 29.824375 60.566875 28.625 60.125 C26 59 26 59 24 57 C23.01 57 22.02 57 21 57 C21.495 56.01 21.495 56.01 22 55 C23.65 55.66 25.3 56.32 27 57 C28.0494188 53.85174359 27.98655124 53.01298497 27.1875 49.9375 C26.93033203 48.89916016 26.93033203 48.89916016 26.66796875 47.83984375 C26.06980296 45.78757034 26.06980296 45.78757034 24 44 C24.33 43.01 24.66 42.02 25 41 C24.34 41 23.68 41 23 41 C22.99613281 39.40671875 22.99613281 39.40671875 22.9921875 37.78125 C22.91912986 27.38038918 22.91912986 27.38038918 17.78515625 18.66015625 C17.19605469 18.11230469 16.60695313 17.56445312 16 17 C15.42121094 16.40058594 14.84242187 15.80117188 14.24609375 15.18359375 C8.93589474 10.05077091 2.72724035 6.92634955 -4 4 C-4.59337158 3.72857178 -5.18674316 3.45714355 -5.7980957 3.17749023 C-11.28303175 0.85362215 -16.27050613 0.49504681 -22.1875 0.5625 C-23.11151611 0.56934814 -24.03553223 0.57619629 -24.98754883 0.58325195 C-32.52044672 0.75901738 -39.03829079 2.03319565 -46 5 Z " fill="#D0D0D2" transform="translate(84,4)"/>
<path d="M0 0 C-0.0721875 0.66 -0.144375 1.32 -0.21875 2 C-0.95469845 9.85011681 -1.1697216 17.68104958 -1.25 25.5625 C-1.27126953 26.62146484 -1.29253906 27.68042969 -1.31445312 28.77148438 C-1.31896484 29.77630859 -1.32347656 30.78113281 -1.328125 31.81640625 C-1.3374707 32.71818604 -1.34681641 33.61996582 -1.35644531 34.54907227 C-0.93177298 37.46913083 0.19210825 38.72283206 2 41 C2 41.99 2 42.98 2 44 C2.66 44 3.32 44 4 44 C4.33 44.99 4.66 45.98 5 47 C4.67 47.33 4.34 47.66 4 48 C3.91368126 49.34267413 3.89293527 50.68974322 3.90234375 52.03515625 C3.90717773 53.24848633 3.90717773 53.24848633 3.91210938 54.48632812 C3.92048828 55.33646484 3.92886719 56.18660156 3.9375 57.0625 C3.94201172 57.91650391 3.94652344 58.77050781 3.95117188 59.65039062 C3.96299627 61.76695663 3.98093231 63.88348685 4 66 C5.32 66 6.64 66 8 66 C7.835 66.763125 7.67 67.52625 7.5 68.3125 C6.90854604 71.03596236 6.90854604 71.03596236 7 74 C7.48895752 74.45157471 7.97791504 74.90314941 8.48168945 75.3684082 C10.58415619 77.62774012 10.34576474 79.0609001 10.29296875 82.10546875 C10.2784668 83.57983398 10.2784668 83.57983398 10.26367188 85.08398438 C10.23853516 86.10814453 10.21339844 87.13230469 10.1875 88.1875 C10.16719727 89.74114258 10.16719727 89.74114258 10.14648438 91.32617188 C10.11111389 93.88463699 10.06175544 96.4420578 10 99 C4.95152089 97.45345159 0.32422614 95.96256159 -4.0625 92.9375 C-4.81660156 92.43089844 -5.57070313 91.92429687 -6.34765625 91.40234375 C-6.89292969 90.93957031 -7.43820313 90.47679688 -8 90 C-8 89.34 -8 88.68 -8 88 C-8.61875 87.71125 -9.2375 87.4225 -9.875 87.125 C-12 86 -12 86 -14 84 C-14 82.68 -14 81.36 -14 80 C-12.68662604 78.9739266 -11.35335895 77.97272675 -10 77 C-10 76.01 -10 75.02 -10 74 C-10.886875 74.28875 -11.77375 74.5775 -12.6875 74.875 C-16 75 -16 75 -18.75 72.625 C-21.17434145 69.32820447 -21.87823741 66.05488464 -22.4453125 62.05078125 C-22.83741665 59.91183272 -22.83741665 59.91183272 -24.4921875 58.54296875 C-28.29491844 54.6515731 -27.26805495 47.54077927 -27.2109375 42.46875 C-26.27920879 27.14698905 -19.14222176 14.32693724 -8 4 C-2.48648649 0 -2.48648649 0 0 0 Z " fill="#302829" transform="translate(32,13)"/>
<path d="M0 0 C0.69287109 0.00451172 1.38574219 0.00902344 2.09960938 0.01367188 C3.79561068 0.02536844 5.49156703 0.04330076 7.1875 0.0625 C9.72059233 4.70453897 11.65265599 8.71405992 12.1875 14.0625 C11.053125 14.536875 9.91875 15.01125 8.75 15.5 C6.22030505 16.90255264 5.35043558 17.52462744 4.5 20.33203125 C4.27215881 22.59264308 4.15353103 24.79143152 4.1875 27.0625 C7.85055234 27.81176071 10.61105152 28.3005014 14.1875 27.0625 C14.1875 28.0525 14.1875 29.0425 14.1875 30.0625 C16.4975 30.3925 18.8075 30.7225 21.1875 31.0625 C21.6825 33.0425 21.6825 33.0425 22.1875 35.0625 C22.8475 35.0625 23.5075 35.0625 24.1875 35.0625 C24.875 37.875 24.875 37.875 25.1875 41.0625 C24.1975 42.0525 23.2075 43.0425 22.1875 44.0625 C19.5475 42.7425 16.9075 41.4225 14.1875 40.0625 C14.1875 39.4025 14.1875 38.7425 14.1875 38.0625 C12.8675 38.0625 11.5475 38.0625 10.1875 38.0625 C10.1875 39.7125 10.1875 41.3625 10.1875 43.0625 C4.16153427 44.1337828 -1.70159517 44.16195415 -7.8125 44.0625 C-7.8125 42.4125 -7.8125 40.7625 -7.8125 39.0625 C-11.04411867 40.81193915 -11.04411867 40.81193915 -12.0625 44.125 C-12.64 45.094375 -13.2175 46.06375 -13.8125 47.0625 C-17.5 47.9375 -17.5 47.9375 -20.8125 48.0625 C-23.72275102 44.13998775 -24.26241824 40.88030738 -24.6015625 36.1484375 C-24.75502714 33.86962575 -24.75502714 33.86962575 -25.8125 31.0625 C-24.69875 31.124375 -23.585 31.18625 -22.4375 31.25 C-17.25158031 31.27788129 -12.67486666 29.7364295 -7.8125 28.0625 C-8.1425 27.0725 -8.4725 26.0825 -8.8125 25.0625 C-13.1025 24.7325 -17.3925 24.4025 -21.8125 24.0625 C-21.4825 23.0725 -21.1525 22.0825 -20.8125 21.0625 C-16.5225 21.0625 -12.2325 21.0625 -7.8125 21.0625 C-8.1425 20.4025 -8.4725 19.7425 -8.8125 19.0625 C-13.7625 19.0625 -18.7125 19.0625 -23.8125 19.0625 C-23.8125 14.4425 -23.8125 9.8225 -23.8125 5.0625 C-15.49319138 1.95528835 -8.91712016 -0.11093068 0 0 Z " fill="#E2AB9B" transform="translate(58.8125,4.9375)"/>
<path d="M0 0 C12.82228901 1.11498165 23.6540884 7.84738982 32.125 17.375 C35.88749096 21.89358962 36.2572165 25.32961817 36.5625 31.125 C36.60568359 31.87910156 36.64886719 32.63320313 36.69335938 33.41015625 C36.7994832 35.27321888 36.90025001 37.13658524 37 39 C37.66 39 38.32 39 39 39 C39 40.32 39 41.64 39 43 C39.66 43.99 40.32 44.98 41 46 C42.25316456 52.49367089 42.25316456 52.49367089 41 55 C39.35 54.34 37.7 53.68 36 53 C35.505 53.99 35.505 53.99 35 55 C35.928125 55.185625 35.928125 55.185625 36.875 55.375 C39 56 39 56 41 58 C43.06874034 58.6425235 43.06874034 58.6425235 45 59 C45 60.32 45 61.64 45 63 C44.01 63 43.02 63 42 63 C42.495 64.485 42.495 64.485 43 66 C40.6875 65.75 40.6875 65.75 38 65 C36.9739266 63.68662604 35.97272675 62.35335895 35 61 C32.90584196 60.20376178 32.90584196 60.20376178 31 60 C31 59.34 31 58.68 31 58 C30.34 58 29.68 58 29 58 C29.309375 57.4225 29.61875 56.845 29.9375 56.25 C30.95255587 54.10046993 31.69594112 52.35645632 32 50 C31.34 49.01 30.68 48.02 30 47 C29.74883633 43.14882376 30.16615302 39.75231142 31 36 C31 35.34 31 34.68 31 34 C26.71 32.68 22.42 31.36 18 30 C18 30.99 18 31.98 18 33 C17.34 33 16.68 33 16 33 C14.61876037 31.03277992 13.28511874 29.03131672 12 27 C10.00383446 25.00383446 6.18298037 25.59016573 3.4375 25.4375 C2.37112305 25.37272461 2.37112305 25.37272461 1.28320312 25.30664062 C-0.47761912 25.20028223 -2.2387832 25.09961154 -4 25 C-2.125 21.125 -2.125 21.125 -1 20 C1.67058851 19.85884839 4.32432238 19.95752893 7 20 C6.67 16.7 6.34 13.4 6 10 C5.34 10 4.68 10 4 10 C3.32845067 8.71086513 2.66291141 7.41859796 2 6.125 C1.62875 5.40570312 1.2575 4.68640625 0.875 3.9453125 C0 2 0 2 0 0 Z " fill="#4F312A" transform="translate(70,6)"/>
<path d="M0 0 C0.33 1.32 0.66 2.64 1 4 C0.01 4 -0.98 4 -2 4 C-1.87625 5.546875 -1.87625 5.546875 -1.75 7.125 C-1.72352387 14.53831624 -4.44764743 22.03287678 -7.125 28.875 C-8.26464242 32.9451515 -8.21755366 36.67448785 -8.125 40.875 C-8.11597656 41.65875 -8.10695313 42.4425 -8.09765625 43.25 C-8.07428063 45.16680055 -8.03841653 47.08344191 -8 49 C-7.34 49 -6.68 49 -6 49 C-6 48.01 -6 47.02 -6 46 C-5.34 46 -4.68 46 -4 46 C-3.67 48.31 -3.34 50.62 -3 53 C-3.99 53.495 -3.99 53.495 -5 54 C-4.505 55.093125 -4.01 56.18625 -3.5 57.3125 C-2 61 -2 61 -2 64 C-0.68 64.66 0.64 65.32 2 66 C1.67 67.65 1.34 69.3 1 71 C2.32 71.33 3.64 71.66 5 72 C6.46726798 75.81489674 5.43336419 78.29011622 4 82 C5.65 82.33 7.3 82.66 9 83 C8.67 85.31 8.34 87.62 8 90 C5.0280615 88.87548273 2.66559313 87.77706209 0 86 C0 85.34 0 84.68 0 84 C-0.61875 83.71125 -1.2375 83.4225 -1.875 83.125 C-4 82 -4 82 -6 80 C-6 78.68 -6 77.36 -6 76 C-4.68662604 74.9739266 -3.35335895 73.97272675 -2 73 C-2 72.01 -2 71.02 -2 70 C-2.886875 70.28875 -3.77375 70.5775 -4.6875 70.875 C-8 71 -8 71 -10.75 68.625 C-13.17434145 65.32820447 -13.87823741 62.05488464 -14.4453125 58.05078125 C-14.83741665 55.91183272 -14.83741665 55.91183272 -16.4921875 54.54296875 C-20.29491844 50.6515731 -19.26805495 43.54077927 -19.2109375 38.46875 C-18.25330359 22.72099241 -10.82248386 10.86526048 0 0 Z " fill="#4C3838" transform="translate(24,17)"/>
<path d="M0 0 C2.8125 1.4375 2.8125 1.4375 5 3 C5 3.66 5 4.32 5 5 C5.66 5 6.32 5 7 5 C7.33 4.01 7.66 3.02 8 2 C8.6875 3.75 8.6875 3.75 9 6 C7.71484375 7.88671875 7.71484375 7.88671875 6 10 C4.95632701 11.35262097 3.91464568 12.70678113 2.875 14.0625 C2.35679688 14.73410156 1.83859375 15.40570313 1.3046875 16.09765625 C-0.17651761 18.0699164 -0.17651761 18.0699164 -1 21 C-1.66 21 -2.32 21 -3 21 C-3.04125 21.598125 -3.0825 22.19625 -3.125 22.8125 C-4 25 -4 25 -6.5 26.75 C-10.83144631 28.29694511 -14.45543799 28.88117181 -19 28 C-21.50873748 26.60441094 -22.94263642 25.10520924 -25 23 C-25.78375 22.29875 -26.5675 21.5975 -27.375 20.875 C-29 19 -29 19 -29 16 C-29.99 16 -30.98 16 -32 16 C-32 14.68 -32 13.36 -32 12 C-34.97 11.505 -34.97 11.505 -38 11 C-38 9.68 -38 8.36 -38 7 C-34.81380869 7 -32.89291087 7.18000161 -29.9375 8 C-27.41569272 8.69700623 -25.66269933 9 -23 9 C-23 8.34 -23 7.68 -23 7 C-22.20335937 6.93941406 -21.40671875 6.87882812 -20.5859375 6.81640625 C-12.75667303 6.20332134 -12.75667303 6.20332134 -5 5 C-5 5.66 -5 6.32 -5 7 C-5.66 7 -6.32 7 -7 7 C-6.67 7.66 -6.34 8.32 -6 9 C-4.68 7.02 -3.36 5.04 -2 3 C-3.134375 3.33 -4.26875 3.66 -5.4375 4 C-12.82230975 5.6859212 -20.4747859 5.15551533 -28 5 C-28.33 3.68 -28.66 2.36 -29 1 C-27.0625 0.4375 -27.0625 0.4375 -25 0 C-24.67 0.33 -24.34 0.66 -24 1 C-21.94044652 1.12669642 -19.87591382 1.17584229 -17.8125 1.1875 C-16.68457031 1.20167969 -15.55664062 1.21585938 -14.39453125 1.23046875 C-9.04293479 0.86712676 -5.28902078 -1.76300693 0 0 Z " fill="#DA9D8C" transform="translate(76,50)"/>
<path d="M0 0 C4.45924427 0.71902949 8.72819774 1.49230509 13 3 C14.34005841 7.02017524 13.59982234 10.25497091 13.05859375 14.40625 C12.74657489 17.24099176 12.74657489 17.24099176 15 20 C14.67339287 23.37494032 13.11635213 25.42357133 11 28 C11.66 28 12.32 28 13 28 C13 28.66 13 29.32 13 30 C13.7425 30.0825 14.485 30.165 15.25 30.25 C18.53491986 31.14588723 19.63417262 32.63417262 22 35 C23.32 35 24.64 35 26 35 C25.00956295 39.83628305 24.04301154 44.47618873 22 49 C21.11248047 49.05607422 21.11248047 49.05607422 20.20703125 49.11328125 C15.39332549 49.51376901 11.99158223 50.0385035 8 53 C8 51.68 8 50.36 8 49 C8.66 49 9.32 49 10 49 C10 48.01 10 47.02 10 46 C11.32 46 12.64 46 14 46 C14 45.34 14 44.68 14 44 C15.98 43.505 15.98 43.505 18 43 C17.01 42.34 16.02 41.68 15 41 C15.99 40.01 16.98 39.02 18 38 C15.69 38 13.38 38 11 38 C10.67 36.68 10.34 35.36 10 34 C11.32 34 12.64 34 14 34 C14 33.01 14 32.02 14 31 C10.37 30.67 6.74 30.34 3 30 C3.33 30.99 3.66 31.98 4 33 C3.01 33.495 3.01 33.495 2 34 C1.34 33.67 0.68 33.34 0 33 C-0.042721 31.33388095 -0.04063832 29.66617115 0 28 C1 27 1 27 3.5625 26.9375 C4.7690625 26.9684375 4.7690625 26.9684375 6 27 C5.67 25.35 5.34 23.7 5 22 C3.02 22.99 3.02 22.99 1 24 C1 23.01 1 22.02 1 21 C0.01 21.66 -0.98 22.32 -2 23 C-1.76990234 22.05060547 -1.76990234 22.05060547 -1.53515625 21.08203125 C-0.81937036 16.95973151 -0.63849837 12.86233493 -0.4375 8.6875 C-0.39431641 7.85154297 -0.35113281 7.01558594 -0.30664062 6.15429688 C-0.20114693 4.10303065 -0.10012685 2.0515352 0 0 Z " fill="#2A1714" transform="translate(88,36)"/>
<path d="M0 0 C0.66 0.33 1.32 0.66 2 1 C1.67 1.66 1.34 2.32 1 3 C1.66 3 2.32 3 3 3 C3 3.66 3 4.32 3 5 C2.01 5.495 2.01 5.495 1 6 C3.02850084 6.11146995 3.02850084 6.11146995 4.9375 5.3125 C7 5 7 5 8.75 6 C10.6042019 8.96672303 10.19330356 11.58497041 10 15 C10.66 15.33 11.32 15.66 12 16 C11.525625 16.391875 11.05125 16.78375 10.5625 17.1875 C8.79226298 18.93812241 8.79226298 18.93812241 8.5 21.5625 C8 24 8 24 5 26 C4.3200561 28.059751 4.3200561 28.059751 3.875 30.375 C3.01020393 33.16654379 2.49850704 34.61791711 0.16015625 36.41015625 C-5.284586 38.92679459 -11.10285958 40.0643368 -17 41 C-17.495 39.515 -17.495 39.515 -18 38 C-17.34 38 -16.68 38 -16 38 C-16 36.35 -16 34.7 -16 33 C-14.02 32.505 -14.02 32.505 -12 32 C-12 31.34 -12 30.68 -12 30 C-10.35 29.67 -8.7 29.34 -7 29 C-7 30.65 -7 32.3 -7 34 C-6.4225 33.814375 -5.845 33.62875 -5.25 33.4375 C-2.79307475 32.95976454 -1.35602466 33.24270636 1 34 C1.93380961 29.46859347 1.93380961 29.46859347 1 25 C0.01 25.66 -0.98 26.32 -2 27 C-2 25.68 -2 24.36 -2 23 C-0.68 22.67 0.64 22.34 2 22 C2.33 22.66 2.66 23.32 3 24 C3.103125 23.21625 3.20625 22.4325 3.3125 21.625 C4 19 4 19 7 17 C6.67 16.01 6.34 15.02 6 14 C3.69 14 1.38 14 -1 14 C-0.67 15.32 -0.34 16.64 0 18 C-1.32 17.67 -2.64 17.34 -4 17 C-4.04125 18.093125 -4.0825 19.18625 -4.125 20.3125 C-5 24 -5 24 -8.0625 25.9375 C-9.031875 26.288125 -10.00125 26.63875 -11 27 C-11.33 26.67 -11.66 26.34 -12 26 C-12.33 26.66 -12.66 27.32 -13 28 C-15 28 -15 28 -16.6875 26.5 C-18.65078218 22.7604149 -17.65724209 20.14062515 -17 16 C-17.33 15.01 -17.66 14.02 -18 13 C-17.32453125 12.68546875 -16.6490625 12.3709375 -15.953125 12.046875 C-11.28782695 9.80861062 -7.48503153 7.92066047 -4 4 C-3.34 4 -2.68 4 -2 4 C-1.34 2.68 -0.68 1.36 0 0 Z " fill="#2A262B" transform="translate(84,74)"/>
<path d="M0 0 C-1.875 6.75 -1.875 6.75 -3 9 C-2.34 9 -1.68 9 -1 9 C-0.67 9.99 -0.34 10.98 0 12 C3.3 12.33 6.6 12.66 10 13 C10 13.66 10 14.32 10 15 C10.99 15 11.98 15 13 15 C14.33257403 31.8929385 14.33257403 31.8929385 13 39 C14.98 39 16.96 39 19 39 C19 39.33 19 39.66 19 40 C15.37 40 11.74 40 8 40 C8 38.35 8 36.7 8 35 C4.76838133 36.74943915 4.76838133 36.74943915 3.75 40.0625 C3.1725 41.031875 2.595 42.00125 2 43 C-1.6875 43.875 -1.6875 43.875 -5 44 C-7.91025102 40.07748775 -8.44991824 36.81780738 -8.7890625 32.0859375 C-8.94252714 29.80712575 -8.94252714 29.80712575 -10 27 C-8.88625 27.061875 -7.7725 27.12375 -6.625 27.1875 C-1.43908031 27.21538129 3.13763334 25.6739295 8 24 C7.67 23.01 7.34 22.02 7 21 C2.71 20.67 -1.58 20.34 -6 20 C-5.67 19.01 -5.34 18.02 -5 17 C-0.71 17 3.58 17 8 17 C7.67 16.34 7.34 15.68 7 15 C2.05 15 -2.9 15 -8 15 C-8 10.38 -8 5.76 -8 1 C-3 -1 -3 -1 0 0 Z " fill="#D29383" transform="translate(43,9)"/>
<path d="M0 0 C-0.0721875 0.66 -0.144375 1.32 -0.21875 2 C-0.95716481 9.87642462 -1.14031662 17.71706504 -1.1875 25.625 C-1.20039063 26.69234375 -1.21328125 27.7596875 -1.2265625 28.859375 C-1.22785156 29.86742188 -1.22914062 30.87546875 -1.23046875 31.9140625 C-1.23663208 33.2745874 -1.23663208 33.2745874 -1.24291992 34.66259766 C-1.15513881 37.27182083 -1.15513881 37.27182083 1 40 C0.9765625 42.26171875 0.9765625 42.26171875 0.625 44.6875 C0.45871094 45.89986328 0.45871094 45.89986328 0.2890625 47.13671875 C0.14597656 48.05904297 0.14597656 48.05904297 0 49 C-0.763125 49.144375 -1.52625 49.28875 -2.3125 49.4375 C-5.08172908 49.9632594 -5.08172908 49.9632594 -8 51 C-8.33 51.66 -8.66 52.32 -9 53 C-9.103125 51.845 -9.20625 50.69 -9.3125 49.5 C-9.86035113 44.98828481 -11.2774879 41.19394251 -13 37 C-13.99 37.495 -13.99 37.495 -15 38 C-16.01041719 34.18889625 -15.94287586 31.84948004 -14.6875 28.125 C-14.26404297 26.81789063 -14.26404297 26.81789063 -13.83203125 25.484375 C-13.55746094 24.66453125 -13.28289063 23.8446875 -13 23 C-11.4330512 17.95094276 -10.55131784 13.23751948 -10 8 C-9.01 8 -8.02 8 -7 8 C-6.9175 7.236875 -6.835 6.47375 -6.75 5.6875 C-5.75308799 2.11523197 -3.86720593 0 0 0 Z " fill="#261E22" transform="translate(32,13)"/>
<path d="M0 0 C2 0 2 0 3.5859375 1.57421875 C4.17632812 2.27160156 4.76671875 2.96898437 5.375 3.6875 C5.99632812 4.41582031 6.61765625 5.14414063 7.2578125 5.89453125 C8.6142186 7.5337754 9.9387024 9.19945307 11.25 10.875 C13.00026237 13.20937224 13.00026237 13.20937224 16 15 C16.78938467 19.37749681 17.13908851 23.54916752 17 28 C16.01 28 15.02 28 14 28 C13.8453125 28.8971875 13.8453125 28.8971875 13.6875 29.8125 C13 32 13 32 11.4609375 33.234375 C9.26270183 35.89106624 9.78033058 38.06027407 9.9375 41.4375 C10.248176 48.43965902 10.248176 48.43965902 8 52 C7.01 51.67 6.02 51.34 5 51 C5 43.41 5 35.82 5 28 C4.01 27.67 3.02 27.34 2 27 C2 23.79604584 2.74335022 21.90600261 4 19 C2.68 19 1.36 19 0 19 C-0.16987681 17.12528812 -0.33574776 15.25021305 -0.5 13.375 C-0.63921875 11.80878906 -0.63921875 11.80878906 -0.78125 10.2109375 C-0.99174241 7.12120967 -1.10892364 4.09524685 -1 1 C-0.67 0.67 -0.34 0.34 0 0 Z " fill="#21181A" transform="translate(36,60)"/>
<path d="M0 0 C2.23551759 3.35327639 2.17283528 3.90743657 1.625 7.6875 C1.51414062 8.49574219 1.40328125 9.30398437 1.2890625 10.13671875 C1.19367187 10.75160156 1.09828125 11.36648437 1 12 C1.33 12 1.66 12 2 12 C2.04898437 12.97582031 2.09796875 13.95164062 2.1484375 14.95703125 C2.22320313 16.22933594 2.29796875 17.50164063 2.375 18.8125 C2.47941406 20.70935547 2.47941406 20.70935547 2.5859375 22.64453125 C2.76102939 26.12755234 2.76102939 26.12755234 5 29 C5.43738696 30.71444889 5.80848688 32.44667784 6.125 34.1875 C6.29257813 35.08855469 6.46015625 35.98960938 6.6328125 36.91796875 C6.75398437 37.60503906 6.87515625 38.29210937 7 39 C7.66 39 8.32 39 9 39 C9.33 40.32 9.66 41.64 10 43 C11.32 43 12.64 43 14 43 C14 42.34 14 41.68 14 41 C15.32 41.66 16.64 42.32 18 43 C17.67 44.65 17.34 46.3 17 48 C18.32 48.33 19.64 48.66 21 49 C22.46726798 52.81489674 21.43336419 55.29011622 20 59 C21.65 59.33 23.3 59.66 25 60 C24.67 62.31 24.34 64.62 24 67 C21.0280615 65.87548273 18.66559313 64.77706209 16 63 C16 62.34 16 61.68 16 61 C15.38125 60.71125 14.7625 60.4225 14.125 60.125 C12 59 12 59 10 57 C10 55.68 10 54.36 10 53 C11.31337396 51.9739266 12.64664105 50.97272675 14 50 C14 49.01 14 48.02 14 47 C13.113125 47.28875 12.22625 47.5775 11.3125 47.875 C8 48 8 48 5.25 45.625 C2.82565855 42.32820447 2.12176259 39.05488464 1.5546875 35.05078125 C1.16258335 32.91183272 1.16258335 32.91183272 -0.4921875 31.54296875 C-4.28858445 27.65805477 -3.25751091 20.58238944 -3.234375 15.515625 C-2.87630376 10.14455638 -1.55493306 5.13683243 0 0 Z " fill="#554346" transform="translate(8,40)"/>
<path d="M0 0 C0.33 0.66 0.66 1.32 1 2 C0.67 2.66 0.34 3.32 0 4 C1.32 3.01 2.64 2.02 4 1 C4.66 1.66 5.32 2.32 6 3 C5.34 3 4.68 3 4 3 C4.33 4.32 4.66 5.64 5 7 C3.35 7.33 1.7 7.66 0 8 C-0.33 9.65 -0.66 11.3 -1 13 C-0.01 12.67 0.98 12.34 2 12 C2 11.34 2 10.68 2 10 C3.45823212 9.9729957 4.91660675 9.95360213 6.375 9.9375 C7.18710938 9.92589844 7.99921875 9.91429688 8.8359375 9.90234375 C11 10 11 10 13 11 C13 11.99 13 12.98 13 14 C11.68 14 10.36 14 9 14 C9.33 15.32 9.66 16.64 10 18 C12.31 18 14.62 18 17 18 C17 19.32 17 20.64 17 22 C17.66 22.66 18.32 23.32 19 24 C17.02 24 15.04 24 13 24 C13 24.66 13 25.32 13 26 C11.68 26 10.36 26 9 26 C9 26.99 9 27.98 9 29 C8.34 29 7.68 29 7 29 C7 30.32 7 31.64 7 33 C6.34 33 5.68 33 5 33 C4.9175 31.88625 4.835 30.7725 4.75 29.625 C4.42126213 25.94246056 4.42126213 25.94246056 1.9375 24.5625 C1.298125 24.376875 0.65875 24.19125 0 24 C-0.33 24.66 -0.66 25.32 -1 26 C-2.32 25.34 -3.64 24.68 -5 24 C-4.01 23.67 -3.02 23.34 -2 23 C-2 22.34 -2 21.68 -2 21 C-2.66 21 -3.32 21 -4 21 C-4.33 20.34 -4.66 19.68 -5 19 C-6.98 19.99 -6.98 19.99 -9 21 C-8.67 19.35 -8.34 17.7 -8 16 C-7.01 15.67 -6.02 15.34 -5 15 C-4.89042969 14.16855469 -4.78085938 13.33710937 -4.66796875 12.48046875 C-4.50941406 11.39378906 -4.35085937 10.30710937 -4.1875 9.1875 C-4.03667969 8.10855469 -3.88585937 7.02960937 -3.73046875 5.91796875 C-2.98387597 2.93559009 -2.37924316 1.85776521 0 0 Z " fill="#151114" transform="translate(89,56)"/>
<path d="M0 0 C7.47766872 1.2060756 12.77049885 3.73392248 19 8 C19.69867188 8.44214844 20.39734375 8.88429688 21.1171875 9.33984375 C25.30830623 12.33971089 26.49262836 14.78572588 27.4375 19.875 C27.65346273 21.57996895 27.85072464 23.28790307 28 25 C20.55532181 24.71366622 14.19235799 22.14658639 8 18 C5.37738158 14.38824747 4.51432771 11.42321827 4 7 C3.34 7 2.68 7 2 7 C1.34 4.69 0.68 2.38 0 0 Z " fill="#412721" transform="translate(74,7)"/>
<path d="M0 0 C0.66 0.33 1.32 0.66 2 1 C2 1.66 2 2.32 2 3 C4.97 2.01 7.94 1.02 11 0 C10.34 1.65 9.68 3.3 9 5 C9.65484375 5.59167969 10.3096875 6.18335937 10.984375 6.79296875 C13.96744116 11.53928138 13.43235758 15.83125185 13.25 21.3125 C13.23195313 22.33923828 13.21390625 23.36597656 13.1953125 24.42382812 C13.14831063 26.95017885 13.08262272 29.47460469 13 32 C11.51965236 31.52449439 10.04074979 31.04448784 8.5625 30.5625 C7.73878906 30.29566406 6.91507813 30.02882813 6.06640625 29.75390625 C4 29 4 29 3 28 C3.17635452 25.30917128 3.61835921 22.67148554 4 20 C2.35 19.67 0.7 19.34 -1 19 C-0.67 15.7 -0.34 12.4 0 9 C-1.32 8.67 -2.64 8.34 -4 8 C-2.982983 4.94894899 -2.17353952 4.17353952 0 2 C0 1.34 0 0.68 0 0 Z " fill="#352528" transform="translate(29,80)"/>
<path d="M0 0 C0.02696365 1.79158489 0.04637917 3.58328473 0.0625 5.375 C0.07410156 6.37273438 0.08570313 7.37046875 0.09765625 8.3984375 C0 11 0 11 -1 13 C-0.01 12.67 0.98 12.34 2 12 C4.06145107 11.931009 6.12501401 11.91532273 8.1875 11.9375 C9.81751953 11.95103516 9.81751953 11.95103516 11.48046875 11.96484375 C12.31191406 11.97644531 13.14335938 11.98804688 14 12 C14.33 12.99 14.66 13.98 15 15 C13.60974609 15.07347656 13.60974609 15.07347656 12.19140625 15.1484375 C10.99386719 15.22320312 9.79632813 15.29796875 8.5625 15.375 C6.77005859 15.47941406 6.77005859 15.47941406 4.94140625 15.5859375 C3.97074219 15.72257812 3.00007813 15.85921875 2 16 C1.67 16.66 1.34 17.32 1 18 C5.29 18 9.58 18 14 18 C14.33 19.32 14.66 20.64 15 22 C8.74827614 24.86964374 3.90352555 26.51137226 -3 26 C-3.41640288 33.2484945 -2.44166784 39.16914355 0 46 C-0.66 46 -1.32 46 -2 46 C-6.40286161 39.82557277 -6.5280593 34.88594754 -6.3125 27.4375 C-6.29558105 26.37716553 -6.27866211 25.31683105 -6.26123047 24.22436523 C-6.20163255 21.14803348 -6.1091907 18.07493433 -6 15 C-5.97244629 14.18692383 -5.94489258 13.37384766 -5.91650391 12.53613281 C-5.60027949 4.35816735 -5.60027949 4.35816735 -5 1 C-3 0 -3 0 0 0 Z " fill="#A27163" transform="translate(36,11)"/>
<path d="M0 0 C0.66 0.33 1.32 0.66 2 1 C1.67 3.97 1.34 6.94 1 10 C4.66305234 10.74926071 7.42355152 11.2380014 11 10 C11 10.99 11 11.98 11 13 C13.31 13.33 15.62 13.66 18 14 C18.33 15.32 18.66 16.64 19 18 C19.66 18 20.32 18 21 18 C21.6875 20.8125 21.6875 20.8125 22 24 C21.01 24.99 20.02 25.98 19 27 C16.36 25.68 13.72 24.36 11 23 C11 22.34 11 21.68 11 21 C9.68 21 8.36 21 7 21 C7 22.65 7 24.3 7 26 C4.69 26 2.38 26 0 26 C-0.23926957 23.88075522 -0.47639176 21.76124764 -0.703125 19.640625 C-0.89900563 17.89831834 -1.11731831 16.15836868 -1.359375 14.421875 C-2.05943268 8.98809396 -1.90484814 5.15429496 0 0 Z " fill="#DD9989" transform="translate(62,22)"/>
<path d="M0 0 C1.485 0.99 1.485 0.99 3 2 C3.44140625 4.27734375 3.44140625 4.27734375 3.5625 6.9375 C3.74271503 10.6455607 3.86660032 11.79990048 6 15 C9.40614946 14.97873538 9.40614946 14.97873538 13 14 C15.01041003 11.06550592 15.01041003 11.06550592 16 8 C16.66 8 17.32 8 18 8 C18 9.65 18 11.3 18 13 C17.01 13.495 17.01 13.495 16 14 C16 14.99 16 15.98 16 17 C29.03436448 17.17501298 29.03436448 17.17501298 42 16 C40.52307692 20.67692308 40.52307692 20.67692308 37.875 22.3125 C37.25625 22.539375 36.6375 22.76625 36 23 C36.495 21.515 36.495 21.515 37 20 C37.66 20 38.32 20 39 20 C39 19.34 39 18.68 39 18 C38.2575 18.33 37.515 18.66 36.75 19 C31.4878448 20.40324139 26.4142163 20.15769562 21 20 C21.99 21.32 22.98 22.64 24 24 C19.07592112 23.29656016 14.47045114 22.23522557 10 20 C9.67 20.66 9.34 21.32 9 22 C7.33333333 22 5.66666667 22 4 22 C1.1082716 14.48666996 -0.64323227 8.07613852 0 0 Z " fill="#C88475" transform="translate(32,37)"/>
<path d="M0 0 C1.65 0 3.3 0 5 0 C5.33 2.64 5.66 5.28 6 8 C6.66 8 7.32 8 8 8 C8.23074219 8.68707031 8.46148437 9.37414063 8.69921875 10.08203125 C11.15909218 16.92823235 11.15909218 16.92823235 17 21 C17.36162029 22.32594105 17.69728039 23.65938457 18 25 C19.9837767 26.28436734 19.9837767 26.28436734 22 27 C21.01 27 20.02 27 19 27 C18.67 28.98 18.34 30.96 18 33 C17.34 33 16.68 33 16 33 C14.61876037 31.03277992 13.28511874 29.03131672 12 27 C10.00383446 25.00383446 6.18298037 25.59016573 3.4375 25.4375 C2.37112305 25.37272461 2.37112305 25.37272461 1.28320312 25.30664062 C-0.47761912 25.20028223 -2.2387832 25.09961154 -4 25 C-2.125 21.125 -2.125 21.125 -1 20 C1.67058851 19.85884839 4.32432238 19.95752893 7 20 C6.67 16.7 6.34 13.4 6 10 C5.34 10 4.68 10 4 10 C3.32845067 8.71086513 2.66291141 7.41859796 2 6.125 C1.62875 5.40570312 1.2575 4.68640625 0.875 3.9453125 C0 2 0 2 0 0 Z " fill="#5E3930" transform="translate(70,6)"/>
<path d="M0 0 C-3.47662793 10.03152018 -11.85936689 17.93722968 -21 23 C-21.66 23 -22.32 23 -23 23 C-22.57576756 21.53775201 -22.13509755 20.08026588 -21.6875 18.625 C-21.44386719 17.81289062 -21.20023437 17.00078125 -20.94921875 16.1640625 C-20 14 -20 14 -17 12 C-16.84660156 11.21238281 -16.69320312 10.42476562 -16.53515625 9.61328125 C-15.71052344 5.58642469 -13.34000569 3.9414921 -10.27734375 1.3828125 C-6.66938632 -0.8079541 -4.12244028 -0.51530504 0 0 Z " fill="#C28E79" transform="translate(109,85)"/>
<path d="M0 0 C-0.14069196 2.12534659 -0.28770921 4.25027529 -0.4375 6.375 C-0.51871094 7.55835938 -0.59992187 8.74171875 -0.68359375 9.9609375 C-1 13 -1 13 -2 15 C-2.03121316 18.47803777 -1.93231187 21.94507359 -1.83984375 25.421875 C-1.99986529 28.99699039 -2.70304132 31.68385467 -4 35 C-4.33 35 -4.66 35 -5 35 C-4.979375 33.906875 -4.95875 32.81375 -4.9375 31.6875 C-4.81455548 28.05615809 -4.81455548 28.05615809 -6 25 C-7.65 25 -9.3 25 -11 25 C-10.67 19.39 -10.34 13.78 -10 8 C-9.01 8 -8.02 8 -7 8 C-6.9175 7.236875 -6.835 6.47375 -6.75 5.6875 C-5.75308799 2.11523197 -3.86720593 0 0 0 Z " fill="#171215" transform="translate(32,13)"/>
<path d="M0 0 C2.23551759 3.35327639 2.17283528 3.90743657 1.625 7.6875 C1.51414062 8.49574219 1.40328125 9.30398437 1.2890625 10.13671875 C1.19367187 10.75160156 1.09828125 11.36648437 1 12 C1.33 12 1.66 12 2 12 C2.04898437 12.97582031 2.09796875 13.95164062 2.1484375 14.95703125 C2.22320313 16.22933594 2.29796875 17.50164063 2.375 18.8125 C2.47941406 20.70935547 2.47941406 20.70935547 2.5859375 22.64453125 C2.76102939 26.12755234 2.76102939 26.12755234 5 29 C5.59367299 30.60672965 6.13142969 32.2347512 6.625 33.875 C6.88539062 34.71804687 7.14578125 35.56109375 7.4140625 36.4296875 C8.00963022 39.04224458 8.10525251 41.33041371 8 44 C6.125 43.75 6.125 43.75 4 43 C2.33232846 40.63015097 1.97458549 38.82209843 1.5625 35.9375 C0.93884325 32.68062587 0.28570328 32.19046565 -2 30 C-4.63894494 19.90781867 -2.96542137 9.7964813 0 0 Z " fill="#8A7674" transform="translate(8,40)"/>
<path d="M0 0 C0.66 0 1.32 0 2 0 C2 0.66 2 1.32 2 2 C2.66 2.33 3.32 2.66 4 3 C4.4140625 5.06640625 4.4140625 5.06640625 4.625 7.5625 C4.69976562 8.38878906 4.77453125 9.21507812 4.8515625 10.06640625 C4.90054688 10.70449219 4.94953125 11.34257813 5 12 C-1.12366686 14.60822848 -6.35529381 15.53856207 -13 16 C-12.67 19.63 -12.34 23.26 -12 27 C-7.74268432 27.40749675 -7.74268432 27.40749675 -4.125 25.5 C-3.75375 25.005 -3.3825 24.51 -3 24 C-3.99 26.475 -3.99 26.475 -5 29 C-7.31 29.33 -9.62 29.66 -12 30 C-14.91025102 26.07748775 -15.44991824 22.81780738 -15.7890625 18.0859375 C-15.94252714 15.80712575 -15.94252714 15.80712575 -17 13 C-15.88625 13.061875 -14.7725 13.12375 -13.625 13.1875 C-8.43908031 13.21538129 -3.86236666 11.6739295 1 10 C0.67 9.01 0.34 8.02 0 7 C-4.29 6.67 -8.58 6.34 -13 6 C-12.67 5.01 -12.34 4.02 -12 3 C-7.71 3 -3.42 3 1 3 C0.67 2.01 0.34 1.02 0 0 Z " fill="#CD8D7C" transform="translate(50,23)"/>
<path d="M0 0 C2.97 0.495 2.97 0.495 6 1 C6 2.32 6 3.64 6 5 C6.99 5 7.98 5 9 5 C9 5.99 9 6.98 9 8 C9.5775 8.226875 10.155 8.45375 10.75 8.6875 C13.56427613 10.32916107 15.02737733 12.43559053 17 15 C20.4478886 16.7239443 24.22258993 16.3751973 28 16 C31.31805142 14.67570727 31.31805142 14.67570727 34 13 C34.99 12.67 35.98 12.34 37 12 C37.33 11.34 37.66 10.68 38 10 C38.66 10 39.32 10 40 10 C40 9.34 40 8.68 40 8 C40.66 8 41.32 8 42 8 C42.103125 7.38125 42.20625 6.7625 42.3125 6.125 C43 4 43 4 46 2 C44.68882943 8.39195654 40.79324213 12.7979244 36 17 C32.77107267 18.86991678 29.59618545 20.03530898 26 21 C24.87464844 21.31130859 24.87464844 21.31130859 23.7265625 21.62890625 C21.625 22.0625 21.625 22.0625 18 22 C15.22617602 19.43954709 14.18866358 17.56599073 13 14 C11.37070699 12.27196196 9.71672837 10.63755886 8 9 C6.55826991 7.58763849 5.1209612 6.17075321 3.6875 4.75 C2.99011719 4.06421875 2.29273438 3.3784375 1.57421875 2.671875 C0 1 0 1 0 0 Z " fill="#A07162" transform="translate(38,61)"/>
<path d="M0 0 C1 2 1 2 0.29296875 4.35546875 C-0.07183594 5.29003906 -0.43664063 6.22460938 -0.8125 7.1875 C-3.36581721 13.96395085 -5.29934423 19.66606632 -5 27 C-4.67 27 -4.34 27 -4 27 C-4 34.26 -4 41.52 -4 49 C-4.99 48.01 -5.98 47.02 -7 46 C-7.33 46 -7.66 46 -8 46 C-8.06058594 44.86820313 -8.12117187 43.73640625 -8.18359375 42.5703125 C-8.26799917 41.08852855 -8.35264717 39.6067584 -8.4375 38.125 C-8.49647461 37.00544922 -8.49647461 37.00544922 -8.55664062 35.86328125 C-8.71573624 31.80013136 -8.71573624 31.80013136 -10 28 C-9.80100984 26.04326346 -9.59165523 24.08640621 -9.3046875 22.140625 C-9.04138052 20.29072465 -8.88553624 18.4261233 -8.75 16.5625 C-7.41817573 10.23633472 -3.91307291 5.06868801 0 0 Z " fill="#7E6561" transform="translate(18,23)"/>
<path d="M0 0 C1.43229167 1.30208333 2.86458333 2.60416667 4.296875 3.90625 C6.22360515 5.36024492 6.22360515 5.36024492 10 5 C9.00956295 9.83628305 8.04301154 14.47618873 6 19 C5.40832031 19.03738281 4.81664063 19.07476562 4.20703125 19.11328125 C-0.60667451 19.51376901 -4.00841777 20.0385035 -8 23 C-8 21.68 -8 20.36 -8 19 C-7.34 19 -6.68 19 -6 19 C-6 18.01 -6 17.02 -6 16 C-4.68 16 -3.36 16 -2 16 C-2 15.34 -2 14.68 -2 14 C-0.68 13.67 0.64 13.34 2 13 C1.01 12.34 0.02 11.68 -1 11 C-0.01 10.01 0.98 9.02 2 8 C-0.31 8 -2.62 8 -5 8 C-4.67 7.34 -4.34 6.68 -4 6 C-3.01 6 -2.02 6 -1 6 C-0.67 4.02 -0.34 2.04 0 0 Z " fill="#3D2624" transform="translate(104,66)"/>
<path d="M0 0 C0.99 0.33 1.98 0.66 3 1 C3.63394697 5.04141194 4.12404452 8.9065307 4 13 C3.01 13 2.02 13 1 13 C0.8453125 13.8971875 0.8453125 13.8971875 0.6875 14.8125 C0 17 0 17 -1.5390625 18.234375 C-3.73729817 20.89106624 -3.21966942 23.06027407 -3.0625 26.4375 C-2.751824 33.43965902 -2.751824 33.43965902 -5 37 C-5.99 36.67 -6.98 36.34 -8 36 C-8 29.4 -8 22.8 -8 16 C-6.02 15.34 -4.04 14.68 -2 14 C-0.62836947 11.17093303 -0.62836947 11.17093303 -0.125 7.875 C0.09929688 6.77929688 0.32359375 5.68359375 0.5546875 4.5546875 C0.70164062 3.71164063 0.84859375 2.86859375 1 2 C0.34 1.67 -0.32 1.34 -1 1 C-0.67 0.67 -0.34 0.34 0 0 Z " fill="#1B171C" transform="translate(49,75)"/>
<path d="M0 0 C2.13700954 0.95796979 3.74625223 1.7162229 5.3203125 3.4765625 C7.43947781 5.39859616 9.32272286 5.79181158 12.0625 6.5625 C14.74609375 7.55078125 14.74609375 7.55078125 17 9 C18.45810972 12.29501663 18.84962369 15.41830973 19 19 C12.92657664 18.57379485 8.86245236 17.79271284 4 14 C2.84962617 11.39359746 2.45553105 8.79749659 2 6 C1.354876 3.99294757 0.69643985 1.98982813 0 0 Z " fill="#331E1A" transform="translate(83,13)"/>
<path d="M0 0 C2.8125 1.4375 2.8125 1.4375 5 3 C5 3.66 5 4.32 5 5 C5.66 5 6.32 5 7 5 C7.33 4.01 7.66 3.02 8 2 C8.6875 3.75 8.6875 3.75 9 6 C7.5399926 8.43334567 6.54764436 9.72617782 4 11 C3.505 8.525 3.505 8.525 3 6 C2.34 7.65 1.68 9.3 1 11 C0.67 11 0.34 11 0 11 C0 9.35 0 7.7 0 6 C-0.99 6.33 -1.98 6.66 -3 7 C-2.67 5.68 -2.34 4.36 -2 3 C-3.134375 3.33 -4.26875 3.66 -5.4375 4 C-12.82230975 5.6859212 -20.4747859 5.15551533 -28 5 C-28.33 3.68 -28.66 2.36 -29 1 C-27.0625 0.4375 -27.0625 0.4375 -25 0 C-24.67 0.33 -24.34 0.66 -24 1 C-21.94044652 1.12669642 -19.87591382 1.17584229 -17.8125 1.1875 C-16.68457031 1.20167969 -15.55664062 1.21585938 -14.39453125 1.23046875 C-9.04293479 0.86712676 -5.28902078 -1.76300693 0 0 Z " fill="#D89D89" transform="translate(76,50)"/>
<path d="M0 0 C0.99 0 1.98 0 3 0 C4 1.33333333 5 2.66666667 6 4 C6.99 4 7.98 4 9 4 C9.33 7.3 9.66 10.6 10 14 C9.34 14 8.68 14 8 14 C8.33 14.99 8.66 15.98 9 17 C7.66666667 17 6.33333333 17 5 17 C4.34 17.99 3.68 18.98 3 20 C2.34 20 1.68 20 1 20 C0.34 18.35 -0.32 16.7 -1 15 C-0.34 15 0.32 15 1 15 C0.484375 14.443125 -0.03125 13.88625 -0.5625 13.3125 C-2 11 -2 11 -1.75 8.625 C-1.5025 7.75875 -1.255 6.8925 -1 6 C-0.66055205 4.00102872 -0.32578384 2.00124361 0 0 Z M13 13 C13.66 13.33 14.32 13.66 15 14 C14.01 14.66 13.02 15.32 12 16 C11.01 15.67 10.02 15.34 9 15 C10.875 13.9375 10.875 13.9375 13 13 Z " fill="#3A2B2D" transform="translate(25,66)"/>
<path d="M0 0 C0.33 0.66 0.66 1.32 1 2 C0.67 2.66 0.34 3.32 0 4 C1.32 3.01 2.64 2.02 4 1 C4.66 1.66 5.32 2.32 6 3 C5.34 3 4.68 3 4 3 C4.33 4.32 4.66 5.64 5 7 C3.35 7.33 1.7 7.66 0 8 C-0.33 9.65 -0.66 11.3 -1 13 C-0.01 12.67 0.98 12.34 2 12 C2 11.34 2 10.68 2 10 C3.45823212 9.9729957 4.91660675 9.95360213 6.375 9.9375 C7.18710938 9.92589844 7.99921875 9.91429688 8.8359375 9.90234375 C11 10 11 10 13 11 C13 11.99 13 12.98 13 14 C11.68 14 10.36 14 9 14 C9.33 14.99 9.66 15.98 10 17 C7.35805573 19.64194427 5.6985004 19.85205998 2 20 C-0.67612341 17.91857068 -2.11445225 15.82832162 -4 13 C-4.08203125 10.625 -4.08203125 10.625 -3.8125 8 C-3.73644531 7.13375 -3.66039063 6.2675 -3.58203125 5.375 C-2.92789656 2.70577924 -2.0964688 1.71786123 0 0 Z " fill="#100907" transform="translate(89,56)"/>
<path d="M0 0 C1.50433594 0.01353516 1.50433594 0.01353516 3.0390625 0.02734375 C3.80992188 0.03894531 4.58078125 0.05054688 5.375 0.0625 C6.035 1.3825 6.695 2.7025 7.375 4.0625 C6.715 4.0625 6.055 4.0625 5.375 4.0625 C5.1275 4.619375 4.88 5.17625 4.625 5.75 C3.15893985 8.46221127 1.34510529 10.69837365 -0.625 13.0625 C-3.595 12.5675 -3.595 12.5675 -6.625 12.0625 C-7.90817892 8.21296324 -7.69143637 5.11511865 -7.625 1.0625 C-4.98041621 -0.25979189 -2.94738699 -0.03427194 0 0 Z " fill="#DB998B" transform="translate(44.625,37.9375)"/>
<path d="M0 0 C1.29547757 4.3278547 0.92100328 7.92073806 -1 12 C-3.38777319 14.71830026 -6.10848451 16.83897263 -9 19 C-9.71414062 19.54914063 -10.42828125 20.09828125 -11.1640625 20.6640625 C-13.09419541 22.13154183 -15.0427236 23.56905002 -17 25 C-17.67417969 25.55816406 -18.34835938 26.11632812 -19.04296875 26.69140625 C-21 28 -21 28 -24.0625 27.6875 C-25.031875 27.460625 -26.00125 27.23375 -27 27 C-27.99 27 -28.98 27 -30 27 C-30.66 29.97 -31.32 32.94 -32 36 C-32.66 35.67 -33.32 35.34 -34 35 C-33.88570603 33.22844346 -33.75816963 31.45773771 -33.625 29.6875 C-33.55539063 28.70136719 -33.48578125 27.71523437 -33.4140625 26.69921875 C-33 24 -33 24 -31 21 C-30.34 21.66 -29.68 22.32 -29 23 C-20.80313419 22.70725479 -12.87248918 20.46709238 -7.125 14.375 C-3.65646225 10.029078 -1.73054312 5.24537293 0 0 Z " fill="#2D2B32" transform="translate(85,59)"/>
<path d="M0 0 C0.66 0.33 1.32 0.66 2 1 C1.67 3.97 1.34 6.94 1 10 C4.66305234 10.74926071 7.42355152 11.2380014 11 10 C11 10.99 11 11.98 11 13 C9.71073008 13.36279456 8.41846728 13.71496698 7.125 14.0625 C6.40570313 14.25972656 5.68640625 14.45695312 4.9453125 14.66015625 C3 15 3 15 1 14 C1.33 14.66 1.66 15.32 2 16 C3.65 16 5.3 16 7 16 C7.66 17.65 8.32 19.3 9 21 C8.34 21 7.68 21 7 21 C7 22.65 7 24.3 7 26 C4.69 26 2.38 26 0 26 C-0.23926957 23.88075522 -0.47639176 21.76124764 -0.703125 19.640625 C-0.89900563 17.89831834 -1.11731831 16.15836868 -1.359375 14.421875 C-2.05943268 8.98809396 -1.90484814 5.15429496 0 0 Z " fill="#DE9F8E" transform="translate(62,22)"/>
<path d="M0 0 C0.268125 0.639375 0.53625 1.27875 0.8125 1.9375 C1.88667752 4.33131686 1.88667752 4.33131686 5 5 C5.58984375 6.890625 5.58984375 6.890625 5.9375 9.25 C6.71949261 13.44067837 7.98200381 15.88140394 11 19 C12.98 18.67 14.96 18.34 17 18 C17.33 19.32 17.66 20.64 18 22 C13.375 26 13.375 26 10 26 C4.25392013 19.07405839 0 9.00244573 0 0 Z " fill="#EFEBE9" transform="translate(5,68)"/>
<path d="M0 0 C1.32 0 2.64 0 4 0 C6.125 2.4375 6.125 2.4375 8 5 C8.66 5.33 9.32 5.66 10 6 C9.67 7.32 9.34 8.64 9 10 C8.649375 9.484375 8.29875 8.96875 7.9375 8.4375 C5.93139949 6.62288944 5.93139949 6.62288944 2.5 7.25 C-0.94938555 7.92177767 -0.94938555 7.92177767 -4 9 C-6.18511688 9.1196943 -8.37414147 9.17527453 -10.5625 9.1875 C-11.71878906 9.20167969 -12.87507813 9.21585938 -14.06640625 9.23046875 C-17 9 -17 9 -19 7 C-19.39764263 5.01178687 -19.73775349 3.01055661 -20 1 C-19.34 1 -18.68 1 -18 1 C-18 2.65 -18 4.3 -18 6 C-12.06 5.67 -6.12 5.34 0 5 C0 3.35 0 1.7 0 0 Z " fill="#C68273" transform="translate(69,43)"/>
<path d="M0 0 C1.98 0 3.96 0 6 0 C5.01 0.495 5.01 0.495 4 1 C4.66 2.093125 5.32 3.18625 6 4.3125 C7.58464929 6.93707538 8 7.8256378 8 11 C8.66 11 9.32 11 10 11 C10 12.98 10 14.96 10 17 C7.33333333 17.66666667 4.66666667 18.33333333 2 19 C1.25234375 19.18691406 0.5046875 19.37382812 -0.265625 19.56640625 C-0.83796875 19.70949219 -1.4103125 19.85257813 -2 20 C-1.8125 18.125 -1.8125 18.125 -1 16 C1.5625 14.75 1.5625 14.75 4 14 C2.85248597 9.2460133 1.61737483 4.62107093 0 0 Z " fill="#BE8A79" transform="translate(66,5)"/>
<path d="M0 0 C0 1.65 0 3.3 0 5 C0.66 4.67 1.32 4.34 2 4 C2 5.65 2 7.3 2 9 C0.5882217 9.53394179 -0.82970244 10.05165104 -2.25 10.5625 C-3.03890625 10.85253906 -3.8278125 11.14257812 -4.640625 11.44140625 C-7.19103452 12.04522837 -8.55322229 11.8473932 -11 11 C-11 10.34 -11 9.68 -11 9 C-10.34 9 -9.68 9 -9 9 C-9 7.35 -9 5.7 -9 4 C-7.68 3.67 -6.36 3.34 -5 3 C-5 2.34 -5 1.68 -5 1 C-2 0 -2 0 0 0 Z " fill="#222127" transform="translate(77,103)"/>
<path d="M0 0 C1.32 0.33 2.64 0.66 4 1 C5.46726798 4.81489674 4.43336419 7.29011622 3 11 C4.65 11.33 6.3 11.66 8 12 C7.67 14.31 7.34 16.62 7 19 C4.0280615 17.87548273 1.66559313 16.77706209 -1 15 C-1 14.34 -1 13.68 -1 13 C-1.66 13 -2.32 13 -3 13 C-3 12.01 -3 11.02 -3 10 C-2.360625 9.773125 -1.72125 9.54625 -1.0625 9.3125 C1.27193661 8.14749104 1.27193661 8.14749104 1.75 5.375 C1.8325 4.59125 1.915 3.8075 2 3 C1.34 3 0.68 3 0 3 C0 2.01 0 1.02 0 0 Z " fill="#503C3F" transform="translate(25,88)"/>
<path d="M0 0 C2.23551759 3.35327639 2.17283528 3.90743657 1.625 7.6875 C1.51414062 8.49574219 1.40328125 9.30398437 1.2890625 10.13671875 C1.19367187 10.75160156 1.09828125 11.36648437 1 12 C1.33 12 1.66 12 2 12 C2 16.95 2 21.9 2 27 C1.34 27 0.68 27 0 27 C-0.33 24.03 -0.66 21.06 -1 18 C-1.33 20.31 -1.66 22.62 -2 25 C-2.33 25 -2.66 25 -3 25 C-3.38558031 16.14593366 -2.56943546 8.48831358 0 0 Z " fill="#AB9794" transform="translate(8,40)"/>
<path d="M0 0 C0.66 0 1.32 0 2 0 C2 0.66 2 1.32 2 2 C2.66 2.33 3.32 2.66 4 3 C4.40729228 5.32156597 4.74438677 7.6568787 5 10 C1.5647952 12.29013653 0.014669 12.17842973 -4 12 C-1 10 -1 10 1 10 C0.67 9.01 0.34 8.02 0 7 C-4.29 6.67 -8.58 6.34 -13 6 C-12.67 5.01 -12.34 4.02 -12 3 C-7.71 3 -3.42 3 1 3 C0.67 2.01 0.34 1.02 0 0 Z " fill="#B67F70" transform="translate(50,23)"/>
<path d="M0 0 C-1.47692308 4.67692308 -1.47692308 4.67692308 -4.125 6.3125 C-4.74375 6.539375 -5.3625 6.76625 -6 7 C-5.67 6.01 -5.34 5.02 -5 4 C-4.34 4 -3.68 4 -3 4 C-3 3.34 -3 2.68 -3 2 C-3.7425 2.33 -4.485 2.66 -5.25 3 C-10.5121552 4.40324139 -15.5857837 4.15769562 -21 4 C-20.01 5.32 -19.02 6.64 -18 8 C-20.97 7.505 -20.97 7.505 -24 7 C-24.33 6.01 -24.66 5.02 -25 4 C-25.66 4 -26.32 4 -27 4 C-27 3.34 -27 2.68 -27 2 C-25.73542969 1.93941406 -24.47085938 1.87882812 -23.16796875 1.81640625 C-21.50780129 1.73199096 -19.84764563 1.64734345 -18.1875 1.5625 C-17.35412109 1.52318359 -16.52074219 1.48386719 -15.66210938 1.44335938 C-14.85966797 1.40146484 -14.05722656 1.35957031 -13.23046875 1.31640625 C-12.12288208 1.26141968 -12.12288208 1.26141968 -10.99291992 1.20532227 C-7.154452 0.80986085 -3.97049695 -0.08823327 0 0 Z " fill="#B36D62" transform="translate(74,53)"/>
<path d="M0 0 C0.66 0 1.32 0 2 0 C4.59227518 4.86051596 4.18689553 9.65271133 4 15 C3.01 15 2.02 15 1 15 C0.34 16.98 -0.32 18.96 -1 21 C-1.66 21 -2.32 21 -3 21 C-3 20.01 -3 19.02 -3 18 C-3.99 18.66 -4.98 19.32 -6 20 C-5.34 14.06 -4.68 8.12 -4 2 C-3.67 2 -3.34 2 -3 2 C-2.67 5.96 -2.34 9.92 -2 14 C-1.34 13.01 -0.68 12.02 0 11 C0.66 11 1.32 11 2 11 C1.34 7.37 0.68 3.74 0 0 Z " fill="#2F1F1D" transform="translate(92,39)"/>
<path d="M0 0 C8.03183352 2.42470446 16.2656302 6.8984453 21 14 C13.83175782 13.31731027 9.40857894 9.45412383 4 5 C3.67 5.66 3.34 6.32 3 7 C0 2.25 0 2.25 0 0 Z " fill="#553731" transform="translate(79,8)"/>
<path d="M0 0 C0.99 0.33 1.98 0.66 3 1 C3.63394697 5.04141194 4.12404452 8.9065307 4 13 C3.01 13 2.02 13 1 13 C0.938125 13.598125 0.87625 14.19625 0.8125 14.8125 C-0.33554682 17.90339529 -2.10547052 18.5880344 -5 20 C-5.66 20 -6.32 20 -7 20 C-7 18.35 -7 16.7 -7 15 C-5.35 14.67 -3.7 14.34 -2 14 C-1.01 10.04 -0.02 6.08 1 2 C0.34 1.67 -0.32 1.34 -1 1 C-0.67 0.67 -0.34 0.34 0 0 Z " fill="#110E11" transform="translate(49,75)"/>
<path d="M0 0 C0.25326797 4.55882353 0.25326797 4.55882353 -0.96875 6.6875 C-2.42682131 9.95711445 -2.4651083 13.22572038 -2.625 16.75 C-2.66367188 17.44738281 -2.70234375 18.14476563 -2.7421875 18.86328125 C-2.83598624 20.57510818 -2.91906174 22.28751682 -3 24 C-4.32 24.33 -5.64 24.66 -7 25 C-6.125 19.25 -6.125 19.25 -5 17 C-4.8770062 14.87764193 -4.82444318 12.75088537 -4.8125 10.625 C-4.79832031 9.48289062 -4.78414062 8.34078125 -4.76953125 7.1640625 C-4.98829966 4.16063184 -5.42919363 2.52074066 -7 0 C-3.86650268 -1.04449911 -3.01031744 -0.93423645 0 0 Z " fill="#0E0D13" transform="translate(68,90)"/>
<path d="M0 0 C1.33804688 0.17982422 1.33804688 0.17982422 2.703125 0.36328125 C3.37859375 0.47027344 4.0540625 0.57726562 4.75 0.6875 C4.75 2.0075 4.75 3.3275 4.75 4.6875 C5.41 5.3475 6.07 6.0075 6.75 6.6875 C4.77 6.6875 2.79 6.6875 0.75 6.6875 C0.75 7.3475 0.75 8.0075 0.75 8.6875 C-0.57 8.6875 -1.89 8.6875 -3.25 8.6875 C-3.4975 8.06875 -3.745 7.45 -4 6.8125 C-5.45628639 4.33681313 -6.62812506 3.73624998 -9.25 2.6875 C-6.03037108 -0.23875152 -4.27288159 -0.61844339 0 0 Z " fill="#1E1211" transform="translate(101.25,73.3125)"/>
<path d="M0 0 C0.33 0.99 0.66 1.98 1 3 C1.99 3.33 2.98 3.66 4 4 C5.1194613 6.8914086 5.10768197 9.67762612 5.0625 12.75 C5.05347656 13.54921875 5.04445313 14.3484375 5.03515625 15.171875 C5.01775391 16.07679687 5.01775391 16.07679687 5 17 C5.99 17 6.98 17 8 17 C8 18.98 8 20.96 8 23 C2.58461538 24.23076923 2.58461538 24.23076923 -0.375 23.0625 C-1.179375 22.5365625 -1.179375 22.5365625 -2 22 C-1.505 20.515 -1.505 20.515 -1 19 C0.65 19.99 2.3 20.98 4 22 C3.66009167 16.62007164 3.31442207 12.46726453 0 8 C0.66 8 1.32 8 2 8 C2 7.34 2 6.68 2 6 C1.34 6 0.68 6 0 6 C0 4.02 0 2.04 0 0 Z " fill="#CBBBB7" transform="translate(107,39)"/>
<path d="M0 0 C-0.94933899 3.35433109 -1.89748835 6.69246505 -3 10 C-3.66 10 -4.32 10 -5 10 C-5 11.65 -5 13.3 -5 15 C-5.99 15 -6.98 15 -8 15 C-8 10.38 -8 5.76 -8 1 C-3 -1 -3 -1 0 0 Z " fill="#CC9580" transform="translate(43,9)"/>
<path d="M0 0 C0.8353125 0.433125 0.8353125 0.433125 1.6875 0.875 C4.08494645 2.0413253 6.51596939 3.0339881 9 4 C9 5.32 9 6.64 9 8 C8.01 8 7.02 8 6 8 C6.33 8.99 6.66 9.98 7 11 C3.39755548 10.69121904 2.00654002 10.00552268 -0.8125 7.625 C-3 5 -3 5 -3 2 C-2.01 1.34 -1.02 0.68 0 0 Z " fill="#6F5956" transform="translate(106,61)"/>
<path d="M0 0 C4.7995185 4.01564299 6.59905481 11.29896752 7.25390625 17.34375 C7.25 19.25 7.25 19.25 7 22 C6.34 22 5.68 22 5 22 C4.80664062 21.14535156 4.61328125 20.29070313 4.4140625 19.41015625 C4.02347656 17.75306641 4.02347656 17.75306641 3.625 16.0625 C3.24214844 14.40927734 3.24214844 14.40927734 2.8515625 12.72265625 C2.57054688 11.82417969 2.28953125 10.92570312 2 10 C1.34 9.67 0.68 9.34 0 9 C-0.44921875 7.1875 -0.44921875 7.1875 -0.6875 5 C-0.77386719 4.278125 -0.86023438 3.55625 -0.94921875 2.8125 C-0.96597656 2.214375 -0.98273438 1.61625 -1 1 C-0.67 0.67 -0.34 0.34 0 0 Z " fill="#F8F5F3" transform="translate(108,33)"/>
<path d="M0 0 C0.33 0 0.66 0 1 0 C1 7.26 1 14.52 1 22 C0.01 21.01 -0.98 20.02 -2 19 C-2.33 19 -2.66 19 -3 19 C-3.55353075 5.18223235 -3.55353075 5.18223235 0 0 Z " fill="#6B5553" transform="translate(13,50)"/>
<path d="M0 0 C3.07446111 -0.35474551 5.94127109 -0.53698855 9 0 C11.5625 3 11.5625 3 13 6 C12.01 7.485 12.01 7.485 11 9 C9.68 8.34 8.36 7.68 7 7 C7 6.34 7 5.68 7 5 C6.21625 5.04125 5.4325 5.0825 4.625 5.125 C2 5 2 5 0 3 C0 2.01 0 1.02 0 0 Z " fill="#E6A497" transform="translate(69,38)"/>
<path d="M0 0 C3.63 0.33 7.26 0.66 11 1 C8.125 6.875 8.125 6.875 7 8 C5.33382885 8.04063832 3.66611905 8.042721 2 8 C0.74335022 5.09399739 0 3.20395416 0 0 Z " fill="#E3A697" transform="translate(38,39)"/>
<path d="M0 0 C0.33 1.32 0.66 2.64 1 4 C0.01 4 -0.98 4 -2 4 C-1.87625 5.546875 -1.87625 5.546875 -1.75 7.125 C-1.70300856 13.63331457 -4.06675704 19.85504915 -6 26 C-6.33 26 -6.66 26 -7 26 C-7.59503032 8.61189173 -7.59503032 8.61189173 -3.75390625 3.265625 C-2.375 1.875 -2.375 1.875 0 0 Z " fill="#392D30" transform="translate(24,17)"/>
<path d="M0 0 C0.33 1.32 0.66 2.64 1 4 C-3.77573323 6.61895048 -7.84434881 5.83119431 -13 5 C-12 2 -12 2 -10.4375 0.8125 C-6.88877617 -0.37040794 -3.73298379 -0.12443279 0 0 Z " fill="#664944" transform="translate(50,29)"/>
<path d="M0 0 C2 2 2 2 2 5 C-0.97 5 -3.94 5 -7 5 C-7 5.99 -7 6.98 -7 8 C-5.35 8 -3.7 8 -2 8 C-2 7.34 -2 6.68 -2 6 C-1.34 6 -0.68 6 0 6 C0 6.66 0 7.32 0 8 C1.093125 8.0825 2.18625 8.165 3.3125 8.25 C7 9 7 9 9 10.8125 C10 13 10 13 9.6875 15.25 C9.460625 15.8275 9.23375 16.405 9 17 C8.360625 16.030625 7.72125 15.06125 7.0625 14.0625 C5.3034741 11.23963731 5.3034741 11.23963731 4 10 C1.47403741 9.76346477 -1.03107207 9.57826308 -3.5625 9.4375 C-4.27341797 9.39431641 -4.98433594 9.35113281 -5.71679688 9.30664062 C-7.47761912 9.20028223 -9.2387832 9.09961154 -11 9 C-9.125 5.125 -9.125 5.125 -8 4 C-5.32941149 3.85884839 -2.67567762 3.95752893 0 4 C0 2.68 0 1.36 0 0 Z " fill="#7D4A40" transform="translate(77,22)"/>
<path d="M0 0 C3.06243607 1.02081202 4.14657225 1.44050454 6 4 C6.1875 7.1875 6.1875 7.1875 6 10 C5.34 10 4.68 10 4 10 C3.67 8.35 3.34 6.7 3 5 C2.34 5 1.68 5 1 5 C1.09539063 5.67546875 1.19078125 6.3509375 1.2890625 7.046875 C1.39992187 7.93890625 1.51078125 8.8309375 1.625 9.75 C1.74101563 10.63171875 1.85703125 11.5134375 1.9765625 12.421875 C2.00207817 15.22859878 1.44843844 16.63384866 0 19 C-0.66 19 -1.32 19 -2 19 C-2 14.38 -2 9.76 -2 5 C-1.34 5 -0.68 5 0 5 C0 3.35 0 1.7 0 0 Z " fill="#0F1017" transform="translate(53,95)"/>
<path d="M0 0 C0.66 0 1.32 0 2 0 C2 1.32 2 2.64 2 4 C2.99 5.485 2.99 5.485 4 7 C5.25316456 13.49367089 5.25316456 13.49367089 4 16 C3.21625 15.649375 2.4325 15.29875 1.625 14.9375 C0.75875 14.628125 -0.1075 14.31875 -1 14 C-1.99 14.495 -1.99 14.495 -3 15 C-2.67 13.02 -2.34 11.04 -2 9 C-1.34 9 -0.68 9 0 9 C-0.185625 7.700625 -0.37125 6.40125 -0.5625 5.0625 C-0.87890625 2.84765625 -0.87890625 2.84765625 -1 1 C-0.67 0.67 -0.34 0.34 0 0 Z " fill="#7E5E56" transform="translate(107,45)"/>
<path d="M0 0 C0.33 0.66 0.66 1.32 1 2 C0.071875 2.61875 0.071875 2.61875 -0.875 3.25 C-3.06768281 5.05573879 -3.92788417 6.4090534 -5 9 C-7.88437779 7.70700306 -9.87219421 6.34058637 -12 4 C-7.99899414 0.12023674 -5.51903037 -0.43286513 0 0 Z " fill="#1C1B22" transform="translate(85,82)"/>
<path d="M0 0 C1.29547757 4.3278547 0.92100328 7.92073806 -1 12 C-3.38799858 14.71855686 -6.10827134 16.83876029 -9 19 C-10.14082031 19.87591797 -10.14082031 19.87591797 -11.3046875 20.76953125 C-13.18866625 22.20095283 -15.08543262 23.60990187 -17 25 C-17.66 24.67 -18.32 24.34 -19 24 C-18.154375 23.29875 -17.30875 22.5975 -16.4375 21.875 C-15.89222656 21.41609375 -15.34695312 20.9571875 -14.78515625 20.484375 C-13.59900715 19.49808034 -12.39831731 18.52900538 -11.18359375 17.578125 C-5.11521317 12.70244989 -2.20769575 7.54296049 0 0 Z " fill="#48312D" transform="translate(85,59)"/>
<path d="M0 0 C0.66 0.33 1.32 0.66 2 1 C2 2.65 2 4.3 2 6 C1.01 5.67 0.02 5.34 -1 5 C-1.23428313 9.7897321 -1.23428313 9.7897321 1 14 C-0.32 14 -1.64 14 -3 14 C-3 14.99 -3 15.98 -3 17 C-3.66 17 -4.32 17 -5 17 C-5 16.34 -5 15.68 -5 15 C-5.66 15 -6.32 15 -7 15 C-6.690625 14.4225 -6.38125 13.845 -6.0625 13.25 C-4.35261116 9.62905894 -3.70777255 7.87668235 -5 4 C-4.67 3.34 -4.34 2.68 -4 2 C-3.34 2 -2.68 2 -2 2 C-2 2.66 -2 3.32 -2 4 C-1.34 4 -0.68 4 0 4 C0 2.68 0 1.36 0 0 Z " fill="#4B302B" transform="translate(106,49)"/>
<path d="M0 0 C2.64 1.32 5.28 2.64 8 4 C7.01 4.495 7.01 4.495 6 5 C6 5.66 6 6.32 6 7 C5.34 7 4.68 7 4 7 C3.67 8.32 3.34 9.64 3 11 C1 11 1 11 -0.6875 9.375 C-2.44121876 6.20160414 -1.91530623 4.43239834 -1 1 C-0.67 0.67 -0.34 0.34 0 0 Z " fill="#1D1D25" transform="translate(68,91)"/>
<path d="M0 0 C2.30142435 1.78174788 3.80034391 3.16304165 4.48828125 6.046875 C4.72323102 8.0246611 4.86751458 10.01271872 5 12 C3.68 12 2.36 12 1 12 C0.67 10.68 0.34 9.36 0 8 C-0.66 8 -1.32 8 -2 8 C-2.33 5.69 -2.66 3.38 -3 1 C-2.34 1.66 -1.68 2.32 -1 3 C-0.67 2.01 -0.34 1.02 0 0 Z " fill="#493B3E" transform="translate(17,71)"/>
<path d="M0 0 C2.50647681 0.17755444 4.94915405 0.42833016 7.4375 0.75 C8.13166016 0.82476562 8.82582031 0.89953125 9.54101562 0.9765625 C11.55859375 1.234375 11.55859375 1.234375 15 2 C15.99 3.485 15.99 3.485 17 5 C11.39 5 5.78 5 0 5 C-0.33 3.68 -0.66 2.36 -1 1 C-0.67 0.67 -0.34 0.34 0 0 Z " fill="#D18F81" transform="translate(48,50)"/>
<path d="M0 0 C3 1 3 1 4.203125 3.3984375 C4.54859375 4.38070313 4.8940625 5.36296875 5.25 6.375 C5.60578125 7.35210938 5.9615625 8.32921875 6.328125 9.3359375 C7 12 7 12 6 15 C2.9375 16.1875 2.9375 16.1875 0 17 C0 15.68 0 14.36 0 13 C0.66 13 1.32 13 2 13 C1.85915204 11.20793453 1.71216299 9.41635083 1.5625 7.625 C1.48128906 6.62726562 1.40007812 5.62953125 1.31640625 4.6015625 C1.15034374 2.02072387 1.15034374 2.02072387 0 0 Z " fill="#DBA291" transform="translate(64,5)"/>
<path d="M0 0 C0.66 0.66 1.32 1.32 2 2 C1.9765625 4.3828125 1.9765625 4.3828125 1.625 7.125 C1.51414062 8.03507812 1.40328125 8.94515625 1.2890625 9.8828125 C1.19367187 10.58148438 1.09828125 11.28015625 1 12 C0.01 11.67 -0.98 11.34 -2 11 C-2.99 11.495 -2.99 11.495 -4 12 C-4 10.68 -4 9.36 -4 8 C-4.99 8.495 -4.99 8.495 -6 9 C-5.67 7.02 -5.34 5.04 -5 3 C-3.35 2.67 -1.7 2.34 0 2 C0 1.34 0 0.68 0 0 Z " fill="#2B2122" transform="translate(40,89)"/>
<path d="M0 0 C0.33 0 0.66 0 1 0 C1 3.96 1 7.92 1 12 C1.66 12 2.32 12 3 12 C3 13.32 3 14.64 3 16 C3.66 16 4.32 16 5 16 C4.67 18.64 4.34 21.28 4 24 C3.67 24 3.34 24 3 24 C2.8453125 22.6078125 2.8453125 22.6078125 2.6875 21.1875 C2.33958876 18.02667483 2.33958876 18.02667483 0.47265625 16.67578125 C-1.70417892 14.19869296 -1.32928714 12.23491514 -1.25 9 C-1.23453125 7.948125 -1.2190625 6.89625 -1.203125 5.8125 C-1 3 -1 3 0 0 Z " fill="#907E7C" transform="translate(7,55)"/>
<path d="M0 0 C0.33 0.99 0.66 1.98 1 3 C1.66 3 2.32 3 3 3 C3 3.66 3 4.32 3 5 C3.66 5.33 4.32 5.66 5 6 C4.67 8.31 4.34 10.62 4 13 C3.34 13 2.68 13 2 13 C2 12.34 2 11.68 2 11 C1.34 11 0.68 11 0 11 C0 11.66 0 12.32 0 13 C-0.66 13 -1.32 13 -2 13 C-2.10696872 8.40034486 -2.0887918 4.17758361 0 0 Z " fill="#422720" transform="translate(102,40)"/>
<path d="M0 0 C0.33 0.66 0.66 1.32 1 2 C1.66 2 2.32 2 3 2 C3.33 4.64 3.66 7.28 4 10 C1.03 9.01 -1.94 8.02 -5 7 C-3.92643531 2.70574125 -3.4915227 2.25259529 0 0 Z " fill="#2C2124" transform="translate(38,102)"/>
<path d="M0 0 C3.875 1.875 3.875 1.875 5 3 C5.07244053 5.01964199 5.08377188 7.04167124 5.0625 9.0625 C5.05347656 10.16722656 5.04445313 11.27195312 5.03515625 12.41015625 C5.02355469 13.26480469 5.01195312 14.11945313 5 15 C5.33 14.01 5.66 13.02 6 12 C6.66 12 7.32 12 8 12 C7.34 14.64 6.68 17.28 6 20 C4.35 20 2.7 20 1 20 C1.33 18.845 1.66 17.69 2 16.5 C3.08401934 12.22499413 3.15701377 8.39638547 3 4 C2.34 4 1.68 4 1 4 C0.67 2.68 0.34 1.36 0 0 Z " fill="#2A2A32" transform="translate(55,95)"/>
<path d="M0 0 C0.66 0 1.32 0 2 0 C2.33 1.65 2.66 3.3 3 5 C3.66 5 4.32 5 5 5 C4.01 8.3 3.02 11.6 2 15 C1.01 15 0.02 15 -1 15 C-0.835 13.824375 -0.67 12.64875 -0.5 11.4375 C-0.01271488 7.58726127 0.08077957 3.87741927 0 0 Z " fill="#191922" transform="translate(54,100)"/>
<path d="M0 0 C2.97 0.495 2.97 0.495 6 1 C6 2.32 6 3.64 6 5 C6.99 5 7.98 5 9 5 C9 5.99 9 6.98 9 8 C9.5775 8.20625 10.155 8.4125 10.75 8.625 C13.81410544 10.49750888 15.15539968 12.96958519 17 16 C13.13513876 14.4254269 10.86504699 11.9952764 8 9 C5.86037964 6.88827041 3.7176937 4.7796914 1.57421875 2.671875 C0 1 0 1 0 0 Z " fill="#A97F6F" transform="translate(38,61)"/>
<path d="M0 0 C-0.37994168 2.75457718 -0.8073633 3.82020574 -2.875 5.75 C-5 7 -5 7 -8 7 C-9 4 -9 4 -8.25 1.875 C-5.9744784 -1.53828241 -3.52122559 -1.09279415 0 0 Z " fill="#E8E2E0" transform="translate(23,87)"/>
<path d="M0 0 C4.62 0 9.24 0 14 0 C14 0.99 14 1.98 14 3 C9.74199462 4.41933513 5.77088462 4.72651677 1.5625 3 C1.046875 2.67 0.53125 2.34 0 2 C0 1.34 0 0.68 0 0 Z " fill="#E5B4A9" transform="translate(53,57)"/>
<path d="M0 0 C1.4391134 0.28359887 2.87625518 0.57721399 4.3125 0.875 C5.11300781 1.03742187 5.91351563 1.19984375 6.73828125 1.3671875 C9 2 9 2 12 4 C12 5.32 12 6.64 12 8 C11.01 7.67 10.02 7.34 9 7 C8.67 7.66 8.34 8.32 8 9 C7.34 9 6.68 9 6 9 C6 8.34 6 7.68 6 7 C5.34 7 4.68 7 4 7 C4 5.68 4 4.36 4 3 C2.68 2.34 1.36 1.68 0 1 C0 0.67 0 0.34 0 0 Z " fill="#D0927F" transform="translate(75,46)"/>
<path d="M0 0 C0.33 0.66 0.66 1.32 1 2 C0.67 2.66 0.34 3.32 0 4 C1.32 3.67 2.64 3.34 4 3 C4 4.32 4 5.64 4 7 C3.360625 7.12375 2.72125 7.2475 2.0625 7.375 C1.0415625 7.684375 1.0415625 7.684375 0 8 C-0.33 8.66 -0.66 9.32 -1 10 C-2.5 8.75 -2.5 8.75 -4 7 C-4 5.68 -4 4.36 -4 3 C-2 1.25 -2 1.25 0 0 Z " fill="#7B6868" transform="translate(22,90)"/>
<path d="M0 0 C3.3 0 6.6 0 10 0 C10 0.66 10 1.32 10 2 C10.66 2.33 11.32 2.66 12 3 C11.40832031 3.03738281 10.81664063 3.07476562 10.20703125 3.11328125 C5.39332549 3.51376901 1.99158223 4.0385035 -2 7 C-2 5.68 -2 4.36 -2 3 C-1.34 3 -0.68 3 0 3 C0 2.01 0 1.02 0 0 Z " fill="#583A33" transform="translate(98,82)"/>
<path d="M0 0 C0.66 0.33 1.32 0.66 2 1 C1.67 3.97 1.34 6.94 1 10 C4.66305234 10.74926071 7.42355152 11.2380014 11 10 C11 10.99 11 11.98 11 13 C3.64960282 15.32762577 3.64960282 15.32762577 0.75390625 13.8671875 C-1 12 -1 12 -1.42578125 9.58984375 C-1.38839844 8.71457031 -1.35101563 7.83929687 -1.3125 6.9375 C-1.28800781 6.05964844 -1.26351562 5.18179687 -1.23828125 4.27734375 C-1 2 -1 2 0 0 Z " fill="#CD9582" transform="translate(62,22)"/>
<path d="M0 0 C0.66 0 1.32 0 2 0 C3.6290678 4.79137588 4.20577428 8.05632546 3 13 C1.68 12.67 0.36 12.34 -1 12 C-1 11.01 -1 10.02 -1 9 C-1.020625 7.824375 -1.04125 6.64875 -1.0625 5.4375 C-1 2 -1 2 0 0 Z " fill="#4B393E" transform="translate(25,66)"/>
<path d="M0 0 C3.3125 -0.1875 3.3125 -0.1875 7 0 C8.625 1.5 8.625 1.5 10 3 C12.62570704 3.25069913 12.62570704 3.25069913 15 3 C15.33 3.66 15.66 4.32 16 5 C13.24921116 5.91692961 11.64051087 6.10886083 8.8125 6.0625 C6.9253125 6.0315625 6.9253125 6.0315625 5 6 C5 5.01 5 4.02 5 3 C2.525 2.01 2.525 2.01 0 1 C0 0.67 0 0.34 0 0 Z " fill="#C98075" transform="translate(50,60)"/>
<path d="M0 0 C0 0.99 0 1.98 0 3 C-4.95 3.33 -9.9 3.66 -15 4 C-9.94888785 0.21166589 -6.24691289 -1.83732732 0 0 Z " fill="#D99C8B" transform="translate(76,50)"/>
<path d="M0 0 C0.2475 0.61875 0.495 1.2375 0.75 1.875 C2.20628639 4.35068687 3.37812506 4.95125002 6 6 C5.01 6 4.02 6 3 6 C2.67 7.98 2.34 9.96 2 12 C1.7525 11.4225 1.505 10.845 1.25 10.25 C-0.17525423 7.68454238 -1.86612265 6.00051002 -4 4 C-4.66 3.34 -5.32 2.68 -6 2 C-3 0 -3 0 0 0 Z " fill="#613329" transform="translate(86,27)"/>
<path d="M0 0 C2.125 0.375 2.125 0.375 4 1 C2.625 4 2.625 4 0 7 C-3.3854069 7.5412406 -6.59961015 7.35042185 -10 7 C-8.39161707 3.78323414 -5.21406721 3.35329146 -2 2 C-1.34 1.34 -0.68 0.68 0 0 Z " fill="#BB8773" transform="translate(105,86)"/>
<path d="M0 0 C-0.598125 0.268125 -1.19625 0.53625 -1.8125 0.8125 C-4.0054085 1.84842751 -4.0054085 1.84842751 -5.3125 3.4375 C-7.83555166 5.77365894 -10.84296934 6.70336241 -14 8 C-14.99 8.66 -15.98 9.32 -17 10 C-13.49567546 2.17480929 -8.40502801 -0.88473979 0 0 Z " fill="#9A6D5F" transform="translate(109,85)"/>
<path d="M0 0 C2 1 2 1 3.1875 3.125 C4.22360316 6.79121119 3.90288978 9.31898781 3 13 C2.01 13.66 1.02 14.32 0 15 C0 10.05 0 5.1 0 0 Z " fill="#0B0704" transform="translate(89,39)"/>
<path d="M0 0 C0.433125 0.495 0.86625 0.99 1.3125 1.5 C2.99740483 3.33218192 2.99740483 3.33218192 6 3 C7.19287411 6.87684087 8 9.91621923 8 14 C5.525 13.01 5.525 13.01 3 12 C3 11.01 3 10.02 3 9 C3.99 9.33 4.98 9.66 6 10 C5.566875 9.44570313 5.13375 8.89140625 4.6875 8.3203125 C3.8521875 7.23363281 3.8521875 7.23363281 3 6.125 C2.443125 5.40570312 1.88625 4.68640625 1.3125 3.9453125 C0 2 0 2 0 0 Z " fill="#492E29" transform="translate(79,13)"/>
<path d="M0 0 C0.969375 0.474375 1.93875 0.94875 2.9375 1.4375 C7.19836149 3.28852999 11.40015606 3.69751593 16 4 C12.1265448 6.08371139 8.44931002 7.4011673 4 7 C1.5 4.6875 1.5 4.6875 0 2 C0 1.34 0 0.68 0 0 Z " fill="#81584E" transform="translate(52,76)"/>
<path d="M0 0 C2.31 0.66 4.62 1.32 7 2 C6.01 2.495 6.01 2.495 5 3 C5 4.65 5 6.3 5 8 C2.69 8 0.38 8 -2 8 C-1.67 7.4225 -1.34 6.845 -1 6.25 C0.27075898 3.80116138 0.27075898 3.80116138 0 0 Z " fill="#D49385" transform="translate(64,40)"/>
<path d="M0 0 C1 3 1 3 1 6 C1.66 5.34 2.32 4.68 3 4 C2.67 6.64 2.34 9.28 2 12 C0.68 12 -0.64 12 -2 12 C-2.17835515 7.45194365 -1.99785435 4.1205746 0 0 Z " fill="#151215" transform="translate(43,99)"/>
<path d="M0 0 C0.99 0.33 1.98 0.66 3 1 C2.814375 1.804375 2.62875 2.60875 2.4375 3.4375 C2.2209375 4.7059375 2.2209375 4.7059375 2 6 C2.33 6.33 2.66 6.66 3 7 C3.04063832 8.66617115 3.042721 10.33388095 3 12 C0.22187968 10.98135588 -0.8532559 10.2360666 -2.4375 7.6875 C-3 5 -3 5 -1.625 2.1875 C-1.08875 1.465625 -0.5525 0.74375 0 0 Z " fill="#15161F" transform="translate(50,88)"/>
<path d="M0 0 C1.98 0.66 3.96 1.32 6 2 C5.67 4.64 5.34 7.28 5 10 C3.68 9.67 2.36 9.34 1 9 C1.33 7.68 1.66 6.36 2 5 C1.34 5 0.68 5 0 5 C0 3.35 0 1.7 0 0 Z " fill="#141115" transform="translate(27,52)"/>
<path d="M0 0 C3.20285942 0.21352396 5.81448135 1.07195818 8.8125 2.1875 C8.8125 2.5175 8.8125 2.8475 8.8125 3.1875 C5.8425 3.1875 2.8725 3.1875 -0.1875 3.1875 C0.1425 4.1775 0.4725 5.1675 0.8125 6.1875 C-0.1775 6.6825 -0.1775 6.6825 -1.1875 7.1875 C-1.8475 6.8575 -2.5075 6.5275 -3.1875 6.1875 C-3.230221 4.52138095 -3.22813832 2.85367115 -3.1875 1.1875 C-2.1875 0.1875 -2.1875 0.1875 0 0 Z " fill="#211412" transform="translate(91.1875,62.8125)"/>
<path d="M0 0 C0.33 1.32 0.66 2.64 1 4 C1.99 4 2.98 4 4 4 C3.67 7.3 3.34 10.6 3 14 C2.01 14 1.02 14 0 14 C0 9.38 0 4.76 0 0 Z " fill="#15151C" transform="translate(47,100)"/>
<path d="M0 0 C0.33 0 0.66 0 1 0 C1 1.98 1 3.96 1 6 C-1.66666667 6.66666667 -4.33333333 7.33333333 -7 8 C-8.12148437 8.28037109 -8.12148437 8.28037109 -9.265625 8.56640625 C-9.83796875 8.70949219 -10.4103125 8.85257813 -11 9 C-10.625 7.0625 -10.625 7.0625 -10 5 C-6.78548731 3.39274365 -3.56387464 3.94251815 0 4 C0 2.68 0 1.36 0 0 Z " fill="#8F6153" transform="translate(75,16)"/>
<path d="M0 0 C0.4125 0.639375 0.825 1.27875 1.25 1.9375 C3.17810487 4.20990931 4.11424181 4.60196439 7 5 C6.67 5.99 6.34 6.98 6 8 C4.02 8.33 2.04 8.66 0 9 C-0.66 7.68 -1.32 6.36 -2 5 C-1.34 5 -0.68 5 0 5 C0 3.35 0 1.7 0 0 Z " fill="#6D5C5C" transform="translate(16,79)"/>
<path d="M0 0 C4.24571062 4.30515056 4.63694938 7.56233433 4.75 13.3125 C4.77964844 14.05306641 4.80929688 14.79363281 4.83984375 15.55664062 C4.91005845 17.37052046 4.95735048 19.18526278 5 21 C4.34 21 3.68 21 3 21 C2.09586327 17.16275828 1.89423102 13.62497726 1.9375 9.6875 C1.94652344 8.61886719 1.95554687 7.55023438 1.96484375 6.44921875 C1.98224609 5.23685547 1.98224609 5.23685547 2 4 C1.34 4 0.68 4 0 4 C0 2.68 0 1.36 0 0 Z " fill="#796360" transform="translate(102,24)"/>
<path d="M0 0 C0.99 0 1.98 0 3 0 C3 1.32 3 2.64 3 4 C2.01 4 1.02 4 0 4 C0.33 4.99 0.66 5.98 1 7 C-1.375 6.8125 -1.375 6.8125 -4 6 C-5.3125 3.4375 -5.3125 3.4375 -6 1 C-3.23723823 1.52268466 -0.6739124 2.10869587 2 3 C2 2.34 2 1.68 2 1 C1.34 0.67 0.68 0.34 0 0 Z " fill="#93807E" transform="translate(112,65)"/>
<path d="M0 0 C2.97 0.495 2.97 0.495 6 1 C5.82597656 1.56203125 5.65195313 2.1240625 5.47265625 2.703125 C4.94946654 5.24556755 5.09795162 7.18452337 5.4375 9.75 C5.53933594 10.54921875 5.64117187 11.3484375 5.74609375 12.171875 C5.82988281 12.77515625 5.91367188 13.3784375 6 14 C5.67 14 5.34 14 5 14 C4.01 10.7 3.02 7.4 2 4 C1.01 4.495 1.01 4.495 0 5 C0 3.35 0 1.7 0 0 Z " fill="#271613" transform="translate(88,36)"/>
<path d="M0 0 C0.99 0 1.98 0 3 0 C3.02696365 1.79158489 3.04637917 3.58328473 3.0625 5.375 C3.07410156 6.37273438 3.08570313 7.37046875 3.09765625 8.3984375 C3 11 3 11 2 13 C2.99 13.33 3.98 13.66 5 14 C4.360625 14.12375 3.72125 14.2475 3.0625 14.375 C2.381875 14.58125 1.70125 14.7875 1 15 C0.67 15.66 0.34 16.32 0 17 C0 11.39 0 5.78 0 0 Z " fill="#B58170" transform="translate(33,11)"/>
<path d="M0 0 C0.66 0 1.32 0 2 0 C2.25 3.3125 2.25 3.3125 2 7 C0.125 8.9375 0.125 8.9375 -2 10 C-2.66 10 -3.32 10 -4 10 C-3.52449439 8.51965236 -3.04448784 7.04074979 -2.5625 5.5625 C-2.29566406 4.73878906 -2.02882813 3.91507812 -1.75390625 3.06640625 C-1 1 -1 1 0 0 Z " fill="#926D62" transform="translate(90,98)"/>
<path d="M0 0 C2.0625 0.75 2.0625 0.75 4 2 C5 5 5 5 4 8 C3.34 8 2.68 8 2 8 C-2 3.52941176 -2 3.52941176 -2 1 C-1.34 0.67 -0.68 0.34 0 0 Z " fill="#262125" transform="translate(89,79)"/>
<path d="M0 0 C0.99 0.33 1.98 0.66 3 1 C3.02696365 2.79158489 3.04637917 4.58328473 3.0625 6.375 C3.07410156 7.37273437 3.08570313 8.37046875 3.09765625 9.3984375 C3 12 3 12 2 14 C2.66 14.33 3.32 14.66 4 15 C2.68 14.67 1.36 14.34 0 14 C0.53725895 10.62294375 1.11064623 7.303314 2 4 C1.01 3.67 0.02 3.34 -1 3 C-0.67 2.01 -0.34 1.02 0 0 Z " fill="#26262E" transform="translate(49,100)"/>
<path d="M0 0 C2.97 0 5.94 0 9 0 C8.01 0.33 7.02 0.66 6 1 C6.7763932 4.0745356 6.7763932 4.0745356 9 6 C6.03 5.505 6.03 5.505 3 5 C2.67 4.01 2.34 3.02 2 2 C1.34 2 0.68 2 0 2 C0 1.34 0 0.68 0 0 Z " fill="#97584D" transform="translate(47,55)"/>
<path d="M0 0 C0 0.66 0 1.32 0 2 C-3.14930893 3.04976964 -5.38814456 3.10131595 -8.6875 3.0625 C-9.68136719 3.05347656 -10.67523438 3.04445312 -11.69921875 3.03515625 C-12.83810547 3.01775391 -12.83810547 3.01775391 -14 3 C-14 2.34 -14 1.68 -14 1 C-4.58997722 -0.14806378 -4.58997722 -0.14806378 0 0 Z " fill="#BB776A" transform="translate(67,48)"/>
<path d="M0 0 C0.66 0 1.32 0 2 0 C2.36625971 4.51720311 2.36625971 4.51720311 0.625 6.8125 C-1 8 -1 8 -3 8 C-3 8.99 -3 9.98 -3 11 C-3.99 11 -4.98 11 -6 11 C-4.18690997 7.22272911 -2.0926741 3.62730178 0 0 Z " fill="#BB7569" transform="translate(48,45)"/>
<path d="M0 0 C0.33 0 0.66 0 1 0 C1.36475519 4.25547719 0.70540031 6.66333961 -2 10 C-5.1875 11.3125 -5.1875 11.3125 -8 12 C-7.6875 10.0625 -7.6875 10.0625 -7 8 C-6.01 7.67 -5.02 7.34 -4 7 C-3.34 7.33 -2.68 7.66 -2 8 C-1.855625 7.4225 -1.71125 6.845 -1.5625 6.25 C-1.04166667 4.16666667 -0.52083333 2.08333333 0 0 Z " fill="#372D30" transform="translate(87,100)"/>
<path d="M0 0 C3.3 0 6.6 0 10 0 C8.515 1.98 8.515 1.98 7 4 C6.01 4 5.02 4 4 4 C3.01 5.485 3.01 5.485 2 7 C1.34 4.69 0.68 2.38 0 0 Z " fill="#C18577" transform="translate(34,52)"/>
<path d="M0 0 C2 2 2 2 2 5 C-0.97 5 -3.94 5 -7 5 C-7 6.32 -7 7.64 -7 9 C-8.32 9 -9.64 9 -11 9 C-9.125 5.125 -9.125 5.125 -8 4 C-5.32941149 3.85884839 -2.67567762 3.95752893 0 4 C0 2.68 0 1.36 0 0 Z " fill="#80574D" transform="translate(77,22)"/>
<path d="M0 0 C3.3 0 6.6 0 10 0 C10.33 0.66 10.66 1.32 11 2 C6.9472484 2.98248524 3.16138263 3.08159574 -1 3 C-0.67 2.01 -0.34 1.02 0 0 Z " fill="#C59586" transform="translate(38,26)"/>
<path d="M0 0 C1 2 1 2 0.29296875 4.56640625 C-0.07183594 5.55511719 -0.43664062 6.54382813 -0.8125 7.5625 C-1.16957031 8.55378906 -1.52664062 9.54507813 -1.89453125 10.56640625 C-3 13 -3 13 -5 14 C-4.7444669 8.13551546 -4.34242429 4.34242429 0 0 Z " fill="#735854" transform="translate(18,23)"/>
<path d="M0 0 C-2.3125 2.5 -2.3125 2.5 -5 5 C-5.99 5 -6.98 5 -8 5 C-8 3.68 -8 2.36 -8 1 C-2.25 -1.125 -2.25 -1.125 0 0 Z " fill="#2E2426" transform="translate(70,81)"/>
<path d="M0 0 C0.66 0 1.32 0 2 0 C3.38232443 1.62626404 4.71937515 3.2925002 6 5 C5.34 5 4.68 5 4 5 C3.67 6.32 3.34 7.64 3 9 C1.68 8.34 0.36 7.68 -1 7 C-0.01 6.67 0.98 6.34 2 6 C2 5.34 2 4.68 2 4 C1.34 4 0.68 4 0 4 C0 2.68 0 1.36 0 0 Z " fill="#1B191F" transform="translate(85,73)"/>
<path d="M0 0 C0.66 0 1.32 0 2 0 C2.33 2.31 2.66 4.62 3 7 C2.01 7.495 2.01 7.495 1 8 C0.67 8.66 0.34 9.32 0 10 C-0.66 7.69 -1.32 5.38 -2 3 C-1.34 3 -0.68 3 0 3 C0 2.01 0 1.02 0 0 Z " fill="#3B3234" transform="translate(18,63)"/>
<path d="M0 0 C0.66 0.33 1.32 0.66 2 1 C2 2.65 2 4.3 2 6 C1.01 5.67 0.02 5.34 -1 5 C-1.33 5.99 -1.66 6.98 -2 8 C-2.99 7.01 -3.98 6.02 -5 5 C-4.67 4.01 -4.34 3.02 -4 2 C-3.34 2 -2.68 2 -2 2 C-2 2.66 -2 3.32 -2 4 C-1.34 4 -0.68 4 0 4 C0 2.68 0 1.36 0 0 Z " fill="#58352D" transform="translate(106,49)"/>
<path d="M0 0 C1.65 0 3.3 0 5 0 C5 3.3 5 6.6 5 10 C0 2.5 0 2.5 0 0 Z " fill="#69433A" transform="translate(70,6)"/>
<path d="M0 0 C1.32 0.66 2.64 1.32 4 2 C3.34 3.65 2.68 5.3 2 7 C1.01 6.01 0.02 5.02 -1 4 C-1.33 4.66 -1.66 5.32 -2 6 C-1.125 1.125 -1.125 1.125 0 0 Z " fill="#120F13" transform="translate(88,87)"/>
<path d="M0 0 C0.33 0 0.66 0 1 0 C2.125 6.75 2.125 6.75 1 9 C-1.475 8.01 -1.475 8.01 -4 7 C-3.67 6.01 -3.34 5.02 -3 4 C-2.34 3.67 -1.68 3.34 -1 3 C-0.67 2.01 -0.34 1.02 0 0 Z " fill="#9B7C73" transform="translate(110,52)"/>
<path d="M0 0 C0 0.66 0 1.32 0 2 C-0.66 2 -1.32 2 -2 2 C-1.67 2.66 -1.34 3.32 -1 4 C-0.34 3.67 0.32 3.34 1 3 C0.67 3.99 0.34 4.98 0 6 C-1.98 6 -3.96 6 -6 6 C-5.34 5.67 -4.68 5.34 -4 5 C-4.83333333 2.83333333 -4.83333333 2.83333333 -7 2 C-4.35261084 0.5393715 -3.10551666 0 0 0 Z " fill="#CD9184" transform="translate(71,55)"/>
<path d="M0 0 C1.98 0.99 3.96 1.98 6 3 C6.33 2.01 6.66 1.02 7 0 C7.66 0 8.32 0 9 0 C9.33 1.32 9.66 2.64 10 4 C4.58461538 5.23076923 4.58461538 5.23076923 1.625 4.0625 C1.08875 3.711875 0.5525 3.36125 0 3 C0 2.01 0 1.02 0 0 Z " fill="#BCA6A0" transform="translate(105,58)"/>
<path d="M0 0 C0.99 0.99 1.98 1.98 3 3 C2.34 5.31 1.68 7.62 1 10 C0.67 10 0.34 10 0 10 C0 8.35 0 6.7 0 5 C-0.99 5.33 -1.98 5.66 -3 6 C-2.67 4.68 -2.34 3.36 -2 2 C-1.34 2 -0.68 2 0 2 C0 1.34 0 0.68 0 0 Z " fill="#D08F7D" transform="translate(76,51)"/>
<path d="M0 0 C1.4540625 0.0309375 1.4540625 0.0309375 2.9375 0.0625 C1.46057692 4.73942308 1.46057692 4.73942308 -1.1875 6.375 C-2.115625 6.7153125 -2.115625 6.7153125 -3.0625 7.0625 C-2.7325 6.0725 -2.4025 5.0825 -2.0625 4.0625 C-1.4025 4.0625 -0.7425 4.0625 -0.0625 4.0625 C-0.0625 3.4025 -0.0625 2.7425 -0.0625 2.0625 C-1.3825 1.7325 -2.7025 1.4025 -4.0625 1.0625 C-3.0625 0.0625 -3.0625 0.0625 0 0 Z " fill="#9F6054" transform="translate(71.0625,52.9375)"/>
<path d="M0 0 C0.33 0.99 0.66 1.98 1 3 C1.99 3.66 2.98 4.32 4 5 C1.36 5 -1.28 5 -4 5 C-4.33 4.34 -4.66 3.68 -5 3 C-2.25 0 -2.25 0 0 0 Z " fill="#D19F8E" transform="translate(42,18)"/>
<path d="M0 0 C0.99 0 1.98 0 3 0 C3.08096803 1.45742463 3.13917774 2.91612807 3.1875 4.375 C3.22230469 5.18710937 3.25710937 5.99921875 3.29296875 6.8359375 C3.19628906 7.55007812 3.09960938 8.26421875 3 9 C2.01 9.66 1.02 10.32 0 11 C0 7.37 0 3.74 0 0 Z " fill="#8E6356" transform="translate(31,12)"/>
<path d="M0 0 C0.66 0.33 1.32 0.66 2 1 C1.67 3.31 1.34 5.62 1 8 C0.34 7.67 -0.32 7.34 -1 7 C-1 6.34 -1 5.68 -1 5 C-1.99 4.67 -2.98 4.34 -4 4 C-2.68 2.68 -1.36 1.36 0 0 Z " fill="#18161B" transform="translate(87,91)"/>
<path d="M0 0 C-0.33 0.99 -0.66 1.98 -1 3 C-3.9375 2.625 -3.9375 2.625 -7 2 C-7.33 1.34 -7.66 0.68 -8 0 C-4.71023192 -1.09658936 -3.28696233 -0.79953138 0 0 Z " fill="#26262D" transform="translate(89,85)"/>
<path d="M0 0 C2.475 0.99 2.475 0.99 5 2 C5 3.98 5 5.96 5 8 C4.01 8.495 4.01 8.495 3 9 C2.87625 8.360625 2.7525 7.72125 2.625 7.0625 C2.315625 6.0415625 2.315625 6.0415625 2 5 C1.34 4.67 0.68 4.34 0 4 C0 2.68 0 1.36 0 0 Z " fill="#151012" transform="translate(39,66)"/>
<path d="M0 0 C1.04449911 3.13349732 0.93423645 3.98968256 0 7 C-2.475 6.01 -2.475 6.01 -5 5 C-4.67 4.34 -4.34 3.68 -4 3 C-3.34 3 -2.68 3 -2 3 C-2 2.34 -2 1.68 -2 1 C-1.34 0.67 -0.68 0.34 0 0 Z " fill="#5C4746" transform="translate(32,100)"/>
<path d="M0 0 C2.64 0 5.28 0 8 0 C8.33 0.99 8.66 1.98 9 3 C8.34 3 7.68 3 7 3 C7 2.34 7 1.68 7 1 C6.34 1 5.68 1 5 1 C5 1.66 5 2.32 5 3 C3.35 3 1.7 3 0 3 C0 2.01 0 1.02 0 0 Z " fill="#452925" transform="translate(70,27)"/>
<path d="M0 0 C5.75 0.875 5.75 0.875 8 2 C7.01 3.485 7.01 3.485 6 5 C3.375 5.1875 3.375 5.1875 1 5 C0.67 3.35 0.34 1.7 0 0 Z " fill="#43302E" transform="translate(54,81)"/>
<path d="M0 0 C0.66 0 1.32 0 2 0 C2 2.97 2 5.94 2 9 C1.01 9.33 0.02 9.66 -1 10 C-1.02689216 8.52093108 -1.04634621 7.04172517 -1.0625 5.5625 C-1.07410156 4.73878906 -1.08570313 3.91507813 -1.09765625 3.06640625 C-1 1 -1 1 0 0 Z " fill="#5C4543" transform="translate(13,42)"/>
<path d="M0 0 C-0.33 4.29 -0.66 8.58 -1 13 C-1.33 13 -1.66 13 -2 13 C-2 9.37 -2 5.74 -2 2 C-2.66 1.67 -3.32 1.34 -4 1 C-2 0 -2 0 0 0 Z " fill="#513732" transform="translate(32,13)"/>
<path d="M0 0 C1.125 1.6875 1.125 1.6875 2 4 C1.25 6.6875 1.25 6.6875 0 9 C-0.99 9.495 -0.99 9.495 -2 10 C-1.54177532 6.53058454 -1.10868317 3.32604951 0 0 Z " fill="#B08472" transform="translate(93,94)"/>
<path d="M0 0 C1.32 0.33 2.64 0.66 4 1 C4.6875 2.8125 4.6875 2.8125 5 5 C3.5625 6.75 3.5625 6.75 2 8 C2 6.35 2 4.7 2 3 C1.34 3 0.68 3 0 3 C0 2.01 0 1.02 0 0 Z " fill="#483639" transform="translate(25,88)"/>
<path d="M0 0 C1.32 0.66 2.64 1.32 4 2 C4 2.99 4 3.98 4 5 C1.525 4.01 1.525 4.01 -1 3 C-0.67 2.01 -0.34 1.02 0 0 Z M-2 4 C-1.34 4 -0.68 4 0 4 C-0.33 5.32 -0.66 6.64 -1 8 C-1.33 6.68 -1.66 5.36 -2 4 Z " fill="#27272E" transform="translate(80,87)"/>
<path d="M0 0 C1.14926266 0.95421808 2.29430541 1.91352045 3.4375 2.875 C4.07558594 3.40867187 4.71367188 3.94234375 5.37109375 4.4921875 C7 6 7 6 8 8 C4 8 4 8 1.75 6.25 C0 4 0 4 0 0 Z " fill="#321D1A" transform="translate(44,68)"/>
<path d="M0 0 C0.66 0 1.32 0 2 0 C3.25541557 3.76624671 2.37061958 5.37188934 1 9 C0.34 9 -0.32 9 -1 9 C-0.67 6.03 -0.34 3.06 0 0 Z " fill="#382F31" transform="translate(34,57)"/>
<path d="M0 0 C0.33 0.66 0.66 1.32 1 2 C1.99 2 2.98 2 4 2 C4 2.99 4 3.98 4 5 C2.02 5 0.04 5 -2 5 C-1.34 3.35 -0.68 1.7 0 0 Z " fill="#E6ADA0" transform="translate(59,42)"/>
<path d="M0 0 C0.66 0.33 1.32 0.66 2 1 C2 1.99 2 2.98 2 4 C3.32 4.33 4.64 4.66 6 5 C3.03 4.67 0.06 4.34 -3 4 C-2.67 3.01 -2.34 2.02 -2 1 C-1.34 0.67 -0.68 0.34 0 0 Z " fill="#7D5951" transform="translate(40,30)"/>
<path d="M0 0 C0.66 0.66 1.32 1.32 2 2 C1.6730244 4.61580479 1.17960932 6.64078137 0 9 C-0.66 9 -1.32 9 -2 9 C-1.34 6.03 -0.68 3.06 0 0 Z " fill="#0B0A10" transform="translate(53,105)"/>
<path d="M0 0 C0.33 0.66 0.66 1.32 1 2 C0.67 2.66 0.34 3.32 0 4 C1.32 3.67 2.64 3.34 4 3 C4.33 3.66 4.66 4.32 5 5 C3.02 5.66 1.04 6.32 -1 7 C-1.625 4.625 -1.625 4.625 -2 2 C-1.34 1.34 -0.68 0.68 0 0 Z " fill="#6B5A5A" transform="translate(22,90)"/>
<path d="M0 0 C-0.33 0.99 -0.66 1.98 -1 3 C-2.65 3.33 -4.3 3.66 -6 4 C-6.33 3.01 -6.66 2.02 -7 1 C-4 0 -4 0 0 0 Z " fill="#2B1612" transform="translate(106,74)"/>
<path d="M0 0 C2 2 2 2 2 5 C0 6.6875 0 6.6875 -2 8 C-2.33 5.69 -2.66 3.38 -3 1 C-2.34 1.66 -1.68 2.32 -1 3 C-0.67 2.01 -0.34 1.02 0 0 Z " fill="#5A4648" transform="translate(17,71)"/>
<path d="M0 0 C2.97 0.495 2.97 0.495 6 1 C6 2.65 6 4.3 6 6 C3.97945196 4.35830472 1.97956942 2.69088222 0 1 C0 0.67 0 0.34 0 0 Z " fill="#B58678" transform="translate(38,61)"/>
<path d="M0 0 C0.99 0 1.98 0 3 0 C3.33 1.65 3.66 3.3 4 5 C3.01 5.66 2.02 6.32 1 7 C0.67 4.69 0.34 2.38 0 0 Z " fill="#3B231D" transform="translate(99,54)"/>
<path d="M0 0 C2.4375 0.8125 2.4375 0.8125 5 2 C5.33 2.99 5.66 3.98 6 5 C5.34 5 4.68 5 4 5 C3.67 5.66 3.34 6.32 3 7 C0 2.25 0 2.25 0 0 Z " fill="#4C332E" transform="translate(79,8)"/>
<path d="M0 0 C2.91227269 3.28804981 4.49701212 5.59885603 5 10 C1.32769295 6.92000054 0.43197635 4.7517398 0 0 Z " fill="#9F6C5D" transform="translate(69,6)"/>
<path d="M0 0 C0.99 0.33 1.98 0.66 3 1 C2.25 3.4375 2.25 3.4375 1 6 C-1.125 6.8125 -1.125 6.8125 -3 7 C-2.690625 6.401875 -2.38125 5.80375 -2.0625 5.1875 C-0.89790296 2.91043228 -0.89790296 2.91043228 0 0 Z " fill="#1E1F28" transform="translate(50,88)"/>
<path d="M0 0 C0.33 0.66 0.66 1.32 1 2 C2.65 2 4.3 2 6 2 C3.23776722 4.76223278 0.79293383 4.57856291 -3 5 C-2.67 4.01 -2.34 3.02 -2 2 C-1.34 2 -0.68 2 0 2 C0 1.34 0 0.68 0 0 Z " fill="#B38271" transform="translate(36,27)"/>
<path d="M0 0 C2.31 0 4.62 0 7 0 C7 1.32 7 2.64 7 4 C5.35 4 3.7 4 2 4 C2.66 3.67 3.32 3.34 4 3 C4 2.34 4 1.68 4 1 C2.68 0.67 1.36 0.34 0 0 Z " fill="#AC8072" transform="translate(70,22)"/>
<path d="M0 0 C0.99 0.33 1.98 0.66 3 1 C3.1875 3.875 3.1875 3.875 3 7 C2.01 7.66 1.02 8.32 0 9 C0 6.03 0 3.06 0 0 Z " fill="#C08C78" transform="translate(35,10)"/>
<path d="M0 0 C0.66 0 1.32 0 2 0 C2.33 2.64 2.66 5.28 3 8 C1.5 6.8125 1.5 6.8125 0 5 C-0.1875 2.3125 -0.1875 2.3125 0 0 Z " fill="#FAF7F5" transform="translate(7,74)"/>
<path d="M0 0 C0.66 0 1.32 0 2 0 C2.33 2.31 2.66 4.62 3 7 C1.68 7 0.36 7 -1 7 C-0.67 4.69 -0.34 2.38 0 0 Z " fill="#55474B" transform="translate(32,70)"/>
<path d="M0 0 C1.98 0 3.96 0 6 0 C6 0.99 6 1.98 6 3 C4.35 3 2.7 3 1 3 C0.67 2.01 0.34 1.02 0 0 Z " fill="#E8E0DF" transform="translate(110,62)"/>
<path d="M0 0 C0.66 0 1.32 0 2 0 C3.35439668 2.70879335 3.06501451 5.00933268 3 8 C2.34 7.67 1.68 7.34 1 7 C0.59270772 4.67843403 0.25561323 2.3431213 0 0 Z " fill="#C18171" transform="translate(85,41)"/>
<path d="M0 0 C0.33 0.99 0.66 1.98 1 3 C1.99 3.33 2.98 3.66 4 4 C3.67 5.32 3.34 6.64 3 8 C2.01 7.34 1.02 6.68 0 6 C-0.1875 2.875 -0.1875 2.875 0 0 Z " fill="#DED4D2" transform="translate(107,39)"/>
<path d="M0 0 C0 0.66 0 1.32 0 2 C-2.3125 2.625 -2.3125 2.625 -5 3 C-5.99 2.34 -6.98 1.68 -8 1 C-5.29120665 -0.35439668 -2.99066732 -0.06501451 0 0 Z " fill="#BC9385" transform="translate(74,23)"/>
<path d="M0 0 C0.99 0 1.98 0 3 0 C3.33 2.31 3.66 4.62 4 7 C3.01 6.67 2.02 6.34 1 6 C0 3 0 3 0 0 Z " fill="#3E2520" transform="translate(97,22)"/>
<path d="M0 0 C1.98 0.99 3.96 1.98 6 3 C5.67 3.99 5.34 4.98 5 6 C3.0625 5.25 3.0625 5.25 1 4 C0.25 1.875 0.25 1.875 0 0 Z " fill="#5C3F38" transform="translate(84,10)"/>
</svg>
